<?xml version="1.0" encoding="UTF-8"?>
<svg version="1.1" xmlns="http://www.w3.org/2000/svg" width="512" height="512">
<path d="M0 0 C0.75539063 0.62519531 1.51078125 1.25039062 2.2890625 1.89453125 C51.97675974 43.81318992 67.77924843 127.65917011 74 189 C74.09498779 189.90669434 74.18997559 190.81338867 74.2878418 191.74755859 C75.18592179 201.57774266 75.18611502 211.41020686 75.18530273 221.27294922 C75.18748545 224.2302906 75.20569342 227.18725564 75.22460938 230.14453125 C75.30096795 255.67806341 73.01174191 282.68974653 55.9140625 303.10546875 C45.36159615 313.55025687 34.27461139 316.30300647 19.92871094 316.31469727 C-5.27135478 315.9321235 -28.62414666 300.91430817 -48 286 C-48.6703125 285.49065918 -49.340625 284.98131836 -50.03125 284.45654297 C-59.40255398 277.33248094 -68.42108496 270.06826534 -77 262 C-98.19090156 242.60281648 -119.8282516 232.2553965 -148 227 C-148.69818848 226.86722656 -149.39637695 226.73445312 -150.11572266 226.59765625 C-170.2079085 222.98785652 -193.96302926 223.21549684 -214 227 C-214.8254834 227.15065918 -215.6509668 227.30131836 -216.50146484 227.45654297 C-244.60026773 232.75081515 -265.18384899 244.17298978 -285.9375 263.5 C-291.77501557 268.93062914 -297.96001825 273.83203368 -304.28710938 278.67675781 C-305.90917577 279.92983647 -307.50999829 281.21027501 -309.109375 282.4921875 C-329.95213056 299.05001108 -355.77899689 316.09547708 -383.1875 316.25 C-384.08275391 316.270625 -384.97800781 316.29125 -385.90039062 316.3125 C-397.97168523 316.38222589 -408.02083573 312.31253844 -417.00390625 304.1875 C-418.84135945 302.21439589 -420.4289504 300.19110065 -422 298 C-422.87591797 296.7934375 -422.87591797 296.7934375 -423.76953125 295.5625 C-427.83769129 289.32288198 -430.21331041 282.98490632 -432.3125 275.875 C-432.55492432 275.07167236 -432.79734863 274.26834473 -433.04711914 273.44067383 C-437.32012245 257.9168875 -437.37587652 241.66776004 -437.3125 225.6875 C-437.31067719 224.72745056 -437.30885437 223.76740112 -437.30697632 222.77825928 C-437.25474023 206.34890412 -436.36899415 190.27750801 -434 174 C-433.75056641 172.22955322 -433.75056641 172.22955322 -433.49609375 170.42333984 C-427.97549377 132.09095167 -418.24699462 94.63505181 -403 59 C-402.65469238 58.1867627 -402.30938477 57.37352539 -401.95361328 56.53564453 C-397.10587935 45.25965615 -391.02916442 35.05137771 -384 25 C-383.59023926 24.41234863 -383.18047852 23.82469727 -382.75830078 23.21923828 C-372.77610557 9.11494034 -361.03862523 -2.45790935 -346 -11 C-345.28585937 -11.42667969 -344.57171875 -11.85335937 -343.8359375 -12.29296875 C-321.54946045 -24.66907622 -292.78239657 -21.23276442 -269 -16 C-268.02224609 -15.78569336 -267.04449219 -15.57138672 -266.03710938 -15.35058594 C-259.59631105 -13.92045392 -253.17464945 -12.41355405 -246.75537109 -10.89013672 C-204.8607683 -0.01829259 -204.8607683 -0.01829259 -162.03515625 -0.65625 C-160.46935318 -0.9187429 -160.46935318 -0.9187429 -158.87191772 -1.1865387 C-148.23129234 -3.03542477 -137.77688233 -5.5321807 -127.30233765 -8.14608765 C-121.86222696 -9.50111229 -116.41385354 -10.82191323 -110.96484375 -12.140625 C-109.91273209 -12.3953508 -108.86062042 -12.6500766 -107.77662659 -12.91252136 C-99.77635792 -14.83814886 -91.76845747 -16.63213558 -83.6875 -18.1875 C-82.28105225 -18.46291626 -82.28105225 -18.46291626 -80.84619141 -18.74389648 C-51.73022052 -24.09605752 -22.61854423 -20.19796318 0 0 Z M-351.46484375 24.37109375 C-399.76328458 74.45560943 -413.80847229 163.43432669 -413.28515625 230.30664062 C-412.82185961 260.02567645 -412.82185961 260.02567645 -399.45703125 285.6484375 C-393.69297659 290.77533445 -388.12083115 291.50957813 -380.66015625 291.375 C-358.02000451 289.05541135 -337.67423823 273.08939564 -320.55322266 259.24902344 C-319.15420104 258.12400071 -317.74008148 257.01781534 -316.32421875 255.9140625 C-311.72000786 252.31587536 -307.34504948 248.53642187 -303.0625 244.5625 C-297.56490928 239.46211373 -291.91604278 234.6150408 -286 230 C-285.22527344 229.39542969 -284.45054687 228.79085937 -283.65234375 228.16796875 C-246.33009336 200.56570344 -193.62440823 195.96752157 -149 202 C-122.91813653 206.15070673 -97.64388918 213.92269071 -77 231 C-76.40372803 231.49089111 -75.80745605 231.98178223 -75.19311523 232.48754883 C-73.53222283 233.87287475 -71.88824974 235.27549287 -70.25 236.6875 C-69.65711182 237.19587402 -69.06422363 237.70424805 -68.45336914 238.22802734 C-64.35511492 241.76567388 -60.38191855 245.41764167 -56.4375 249.125 C-50.28265114 254.88150086 -43.78274802 260.00850588 -37 265 C-36.45263184 265.40959961 -35.90526367 265.81919922 -35.34130859 266.24121094 C-16.58905349 280.26025896 4.56672735 294.57864215 29 292 C35.65956563 289.62359647 39.43686568 284.84570284 42.72265625 278.765625 C67.07917212 226.03041633 45.34663959 142.23549226 27 90 C15.62678107 59.30704227 -0.21467426 24.62579624 -31.55078125 9.9921875 C-40.75886963 6.26195712 -49.49843858 4.78787156 -59.375 4.6875 C-60.25671875 4.65849609 -61.1384375 4.62949219 -62.046875 4.59960938 C-80.45027506 4.43574348 -98.90233971 9.76323294 -116.62030029 14.20349121 C-167.17093294 26.81674442 -204.75721307 24.20023162 -255.04188538 11.92970276 C-289.53750054 3.52698013 -322.93144947 -2.35352752 -351.46484375 24.37109375 Z " fill="#000000" transform="translate(437,108)"/>
<path d="M0 0 C8.22070223 6.45912318 14.84802847 14.52222584 16.375 25.125 C16.4575 26.094375 16.54 27.06375 16.625 28.0625 C17.73875 28.124375 18.8525 28.18625 20 28.25 C27.5196123 29.19661786 35.61193037 33.34298153 40.625 39.0625 C47.79411653 48.95982155 51.55274554 58.19405074 50.26171875 70.53515625 C48.29384933 81.63007648 43.41572351 89.46023882 34.734375 96.59375 C29.37044578 100.32863405 24.0578501 102.122456 17.625 103.0625 C17.4290625 103.80113281 17.233125 104.53976562 17.03125 105.30078125 C13.72321879 116.52242159 7.9391254 126.08914246 -2.375 132.0625 C-3.07753906 132.47371094 -3.78007812 132.88492188 -4.50390625 133.30859375 C-13.26914198 137.59480886 -25.11652687 137.63993492 -34.4375 134.9375 C-43.34509495 131.2374221 -52.23598938 123.33485755 -56.25 114.5 C-57.49089282 110.70838306 -58.48798226 106.95173162 -59.375 103.0625 C-60.12523437 102.92714844 -60.87546875 102.79179687 -61.6484375 102.65234375 C-72.58312617 100.3524785 -80.34232402 95.56750272 -86.90625 86.44921875 C-92.94040144 76.64372267 -94.28877638 67.27635595 -92.171875 56.0625 C-89.55765841 46.22074342 -84.41586807 38.93760881 -75.8828125 33.48828125 C-70.25272501 30.28737481 -64.93624247 27.76003138 -58.375 28.0625 C-58.27703125 27.4334375 -58.1790625 26.804375 -58.078125 26.15625 C-56.31691124 16.07481951 -52.54271416 7.60825473 -44.1171875 1.3984375 C-29.67995738 -7.78889076 -14.95158589 -8.58331783 0 0 Z M-30.375 21.0625 C-34.39400351 26.32878046 -34.43102568 31.63363687 -34.625 38.0625 C-35.11223834 45.69057565 -35.11223834 45.69057565 -37.8125 48.375 C-41.82042564 51.01436567 -44.19244167 51.22131429 -49 51.4375 C-58.22276464 51.81239693 -58.22276464 51.81239693 -65.7421875 56.60546875 C-68.17229947 60.40147125 -69.12708279 63.6440136 -68.375 68.0625 C-66.24579331 71.94069789 -64.18348615 74.79693901 -60.375 77.0625 C-57.11157406 77.56777668 -57.11157406 77.56777668 -53.5625 77.625 C-41.12141435 78.30971188 -41.12141435 78.30971188 -37.234375 82.2109375 C-34.97661972 85.67346135 -34.84876848 87.83411865 -34.75 91.9375 C-34.72658986 100.35184759 -34.72658986 100.35184759 -30.98046875 107.55078125 C-27.15054058 110.93661173 -27.15054058 110.93661173 -22.38671875 112.08203125 C-17.23858266 111.62345778 -14.06876394 110.98012842 -10.375 107.0625 C-7.35476446 102.46788635 -7.98140897 97.10108554 -7.81640625 91.7890625 C-7.35148612 87.86398456 -6.44998639 85.40525851 -4.375 82.0625 C1.30462684 78.31910958 7.34544614 78.6686344 14.00390625 78.56640625 C18.22236905 77.97937097 20.349371 76.74080841 23.625 74.0625 C25.82482866 70.30150261 26.625 67.85843296 26.625 63.5 C25.34125274 59.08711881 23.91240304 57.27518934 20.625 54.0625 C15.81061393 51.52542245 10.81258863 51.71102464 5.5078125 51.671875 C2.03543822 51.55394531 -0.22572293 51.14890222 -3.25 49.3984375 C-7.4113666 44.82399406 -7.57969161 40.03639434 -7.75 34.0625 C-8.09674889 28.38897079 -8.39017646 25.15801308 -12.375 21.0625 C-15.3191366 18.67536222 -17.02601478 18.10057111 -20.8125 17.6875 C-24.75759412 18.10277307 -27.06809472 18.88294879 -30.375 21.0625 Z " fill="#000000" transform="translate(158.375,156.9375)"/>
<path d="M0 0 C5.10335091 4.12975566 7.90727243 9.56971851 9 16 C9.24438486 22.55766034 7.96866744 28.68563497 4 34 C-0.95862283 38.85082668 -6.28512836 41.94580607 -13.37890625 42.02734375 C-20.12808114 41.62548448 -25.97168222 40.15618009 -30.7578125 35.16796875 C-35.12463654 29.65142534 -37.54305387 24.41024225 -37.30859375 17.2109375 C-36.4655059 11.17058655 -34.27357403 5.73412548 -29.75 1.5625 C-20.33226299 -5.52590334 -10.18324301 -5.76538717 0 0 Z " fill="#000000" transform="translate(381,158)"/>
<path d="M0 0 C4.47290862 4.89793614 6.98108923 10.36739052 7.2265625 17.015625 C6.75493161 24.74311571 4.41508407 30.1514567 -1.328125 35.4140625 C-6.54803053 39.37615947 -12.19635956 40.53654788 -18.6875 40.296875 C-25.15384068 39.28101483 -30.54493303 36.25361814 -34.7734375 31.265625 C-38.29314872 25.9660598 -39.6226624 19.94861837 -39.078125 13.62109375 C-37.488096 6.06122861 -33.22549501 1.35466813 -27.2734375 -3.109375 C-18.79328482 -8.40947043 -7.37220622 -6.24968922 0 0 Z " fill="#000000" transform="translate(428.2734375,205.109375)"/>
<path d="M0 0 C5.17917268 5.23687934 7.28684964 9.95194492 7.375 17.3125 C7.25798931 23.07202599 6.70566967 27.46855436 3 32 C-3.24403992 37.82690156 -8.88725777 40.47074089 -17.4453125 40.2421875 C-24.3222736 39.59024318 -28.88442623 36.95884797 -33.5234375 31.875 C-37.67959517 26.59733947 -38.61234848 21.4001065 -38.4140625 14.84765625 C-37.51556008 8.66833301 -34.69077015 3.15607096 -30 -1 C-20.41813067 -7.38791289 -9.04935751 -7.57620628 0 0 Z " fill="#000000" transform="translate(337,205)"/>
<path d="M0 0 C5.62311371 3.32221541 9.69328237 8.03606934 12.125 14.0625 C13.41774067 21.96258186 12.76044404 28.06924347 8.17578125 34.6796875 C3.82515953 40.0177537 -0.07999614 43.03816602 -7.140625 43.80859375 C-15.00387056 44.13458257 -20.43020783 43.04403305 -26.28515625 37.69921875 C-31.12312426 32.58309241 -32.9717119 28.18051152 -33.625 21.125 C-32.97145909 13.5439254 -30.9238862 8.08499471 -25.18359375 2.94140625 C-18.1170102 -2.50237106 -8.24054694 -3.60724331 0 0 Z " fill="#000000" transform="translate(377.3125,246.5)"/>
</svg>
