<?xml version="1.0" encoding="UTF-8"?>
<svg version="1.1" xmlns="http://www.w3.org/2000/svg" width="400" height="300">
<path d="M0 0 C-4.41227759 5.28005073 -9.06082824 10.20075115 -13.93466187 15.05491638 C-14.71566336 15.8367723 -15.49666486 16.61862823 -16.30133307 17.42417675 C-18.90604079 20.03052513 -21.51429457 22.6332949 -24.12255859 25.23608398 C-25.9955562 27.10879939 -27.86835436 28.98171228 -29.74090576 30.85487366 C-33.76617298 34.88066384 -37.7932591 38.90462697 -41.82160568 42.92733574 C-47.64583194 48.74341612 -53.46727706 54.56227373 -59.28805895 60.38180102 C-68.73321433 69.82477072 -78.18059816 79.26550763 -87.62939453 88.70483398 C-96.80504895 97.87130174 -105.9796468 107.03882489 -115.15283203 116.20776367 C-115.71878485 116.77345377 -116.28473767 117.33914386 -116.86784057 117.92197608 C-119.70720753 120.76003795 -122.54655379 123.59812052 -125.38588977 126.43621337 C-148.92071958 149.96068567 -172.45917053 173.48153151 -196 197 C-199.48933577 195.35296864 -201.75955899 193.48320216 -204.49316406 190.73388672 C-205.37377502 189.85312469 -206.25438599 188.97236267 -207.16168213 188.06491089 C-208.11310431 187.10327649 -209.06441603 186.1415328 -210.015625 185.1796875 C-210.99596129 184.19561893 -211.97674168 183.21199258 -212.95794678 182.22879028 C-215.53354467 179.64557286 -218.10307857 177.05640488 -220.67138672 174.46594238 C-223.29551067 171.8213238 -225.92533771 169.1823899 -228.5546875 166.54296875 C-233.7087167 161.36751928 -238.85635157 156.18576878 -244 151 C-242.34896339 147.04133877 -239.64239973 144.09486542 -236.81806946 140.93829346 C-236.01562602 140.03274361 -236.01562602 140.03274361 -235.1969716 139.10889983 C-233.39892379 137.08489266 -231.5932508 135.06788799 -229.78637695 133.05175781 C-229.15418495 132.34384157 -228.52199295 131.63592533 -227.87064362 130.90655708 C-215.23779052 116.77230812 -202.3031023 102.92650573 -189.25863361 89.17221451 C-180.98055595 80.43156873 -172.81192357 71.62654326 -164.86206055 62.58544922 C-114.44456715 5.38984405 -76.3545361 -12.24779337 0 0 Z " fill="#42A5F5" transform="translate(322,0)"/>
<path d="M0 0 C1.0564761 0.06735855 2.11295219 0.1347171 3.20144272 0.20411682 C16.26290482 1.10191151 29.16857113 2.68052961 42.0625 4.9375 C37.8132125 10.0118445 33.37144515 14.76759549 28.68017578 19.43334961 C27.96728897 20.14638245 27.25440216 20.85941528 26.51991272 21.59405518 C24.18491086 23.92836557 21.84639705 26.2591231 19.5078125 28.58984375 C17.87949116 30.21629819 16.25139182 31.84297491 14.62350464 33.46986389 C10.35470984 37.73485497 6.0829196 41.99683336 1.81048584 46.25817871 C-2.55524903 50.61365322 -6.91812671 54.97198773 -11.28125 59.33007812 C-19.83054882 67.86867747 -28.38301677 76.40409493 -36.9375 84.9375 C-35.59114219 87.93752888 -34.10077469 90.02092506 -31.77377319 92.33500671 C-31.123134 92.98695007 -30.47249481 93.63889343 -29.80213928 94.31059265 C-29.08932297 95.01464737 -28.37650665 95.71870209 -27.64208984 96.4440918 C-26.51511436 97.56909592 -26.51511436 97.56909592 -25.3653717 98.71682739 C-22.88095633 101.19475129 -20.38964917 103.66562935 -17.8984375 106.13671875 C-16.17443043 107.85445701 -14.45093645 109.57271038 -12.72793579 111.29145813 C-8.19147749 115.81460883 -3.64948602 120.33215906 0.894104 124.84814453 C8.17573124 132.08665509 15.4506308 139.33191228 22.72236252 146.58036232 C25.27053312 149.11826404 27.82206406 151.65275198 30.37393188 154.18693542 C31.92469398 155.73087397 33.47534896 157.27492012 35.02587891 158.8190918 C35.74274368 159.52921921 36.45960846 160.23934662 37.19819641 160.97099304 C37.84319595 161.61447693 38.4881955 162.25796082 39.15274048 162.92094421 C39.71796732 163.48265162 40.28319416 164.04435904 40.86554909 164.62308788 C42.0625 165.9375 42.0625 165.9375 42.0625 166.9375 C27.93836592 169.37928377 13.80604086 170.97297458 -0.5 171.875 C-1.5605661 171.94203629 -2.6211322 172.00907257 -3.71383667 172.07814026 C-31.10951375 173.59963118 -52.76757831 170.3747169 -74.01249504 152.05208015 C-82.60458764 144.34606758 -90.62473242 136.17719865 -98.4375 127.6875 C-99.30288013 126.75096966 -100.16826027 125.81443932 -101.05986404 124.84952927 C-109.77236192 115.36830596 -118.23812913 105.68031861 -126.30664062 95.64355469 C-127.19654363 94.55710112 -127.19654363 94.55710112 -128.10442448 93.448699 C-128.63026347 92.77845731 -129.15610247 92.10821562 -129.69787598 91.41766357 C-130.15798317 90.83877758 -130.61809036 90.25989159 -131.0921402 89.66346359 C-131.9375 87.9375 -131.9375 87.9375 -131.73290539 85.9375 C-130.87564404 83.78196684 -129.89201841 82.2729658 -128.45063782 80.45733643 C-127.92060182 79.78709474 -127.39056581 79.11685305 -126.84446812 78.426301 C-126.25682147 77.70199862 -125.66917482 76.97769625 -125.0637207 76.23144531 C-124.4421279 75.46055289 -123.82053511 74.68966047 -123.18010616 73.89540768 C-114.87087531 63.69645647 -106.15867982 53.86456216 -97.25 44.1875 C-96.39355267 43.25475628 -95.53710533 42.32201256 -94.65470505 41.36100388 C-66.10387958 10.56351333 -42.39811566 -2.70949199 0 0 Z " fill="#42A4F4" transform="translate(279.9375,133.0625)"/>
<path d="M0 0 C3.01628894 1.35247447 5.11057799 2.86111731 7.44219971 5.19496155 C8.43490372 6.18137383 8.43490372 6.18137383 9.44766235 7.18771362 C10.16263885 7.90830963 10.87761536 8.62890564 11.61425781 9.37133789 C12.37562042 10.13080215 13.13698303 10.89026642 13.92141724 11.67274475 C16.43689923 14.18452159 18.9451084 16.70342686 21.453125 19.22265625 C23.19582278 20.96654582 24.93889003 22.71006625 26.68231201 24.45323181 C30.33363208 28.10611617 33.98156609 31.76233753 37.62695312 35.42114258 C42.31195309 40.12316371 47.00354062 44.8185435 51.69743729 49.51168156 C55.29551134 53.11002677 58.89097903 56.71096647 62.48555756 60.31280327 C64.21541667 62.04585548 65.94589178 63.77829305 67.67697906 65.51011848 C70.08829327 67.92358771 72.49629323 70.34031274 74.90332031 72.75805664 C75.62639374 73.48067688 76.34946716 74.20329712 77.0944519 74.94781494 C77.74497528 75.6026033 78.39549866 76.25739166 79.06573486 76.93202209 C79.63573841 77.50370149 80.20574196 78.07538088 80.79301834 78.66438389 C82 80 82 80 82 81 C70.18821158 81.77498436 58.38271044 82.35579584 46.55041599 82.70980167 C41.05026752 82.88003325 35.56781739 83.10908431 30.07788086 83.48950195 C-8.77949164 86.11316474 -8.77949164 86.11316474 -23.46142578 73.50732422 C-31.87752602 65.81919745 -39.18055394 57.11141612 -46 48 C-44.35296864 44.51066423 -42.48320216 42.24044101 -39.73388672 39.50683594 C-38.85312469 38.62622498 -37.97236267 37.74561401 -37.06491089 36.83831787 C-36.10327649 35.88689569 -35.1415328 34.93558397 -34.1796875 33.984375 C-33.19561893 33.00403871 -32.21199258 32.02325832 -31.22879028 31.04205322 C-28.64557286 28.46645533 -26.05640488 25.89692143 -23.46594238 23.32861328 C-20.8213238 20.70448933 -18.1823899 18.07466229 -15.54296875 15.4453125 C-10.36751928 10.2912833 -5.18576878 5.14364843 0 0 Z " fill="#0D449A" transform="translate(240,219)"/>
</svg>
