<?xml version="1.0" encoding="UTF-8"?>
<svg version="1.1" xmlns="http://www.w3.org/2000/svg" width="512" height="512">
<path d="M0 0 C0.81544281 -0.0065712 1.63088562 -0.0131424 2.47103882 -0.01991272 C5.16379912 -0.03958222 7.85650359 -0.05129901 10.54931641 -0.0612793 C11.47480915 -0.06535482 12.4003019 -0.06943035 13.35383987 -0.07362938 C18.25997949 -0.09447093 23.16609136 -0.10877654 28.07226562 -0.11816406 C33.10302782 -0.12917738 38.13334147 -0.16352368 43.16394615 -0.20333576 C47.06255833 -0.22968155 50.96106695 -0.23787208 54.85976028 -0.24144554 C56.71183906 -0.24627142 58.56391449 -0.25776884 60.415905 -0.27648354 C81.67355743 -0.47780996 100.79935742 4.1149615 116.77587891 19.17700195 C119.20900116 21.72382151 121.56154259 24.31396704 123.86572266 26.9777832 C124.49607422 27.70352539 125.12642578 28.42926758 125.77587891 29.17700195 C126.33290497 29.97896751 126.33290497 29.97896751 126.90118408 30.7971344 C129.88570741 32.99389029 133.12236933 32.53398525 136.68115234 32.45410156 C137.48654953 32.44811447 138.29194672 32.44212738 139.12174988 32.43595886 C140.87331551 32.42118501 142.62483351 32.39955597 144.37624359 32.37193108 C147.16147652 32.32894096 149.9462504 32.30565858 152.73175049 32.28773499 C160.65254581 32.23277045 168.5728126 32.13899268 176.49316406 32.04003906 C181.34008684 31.98084965 186.18686609 31.94201584 191.03406525 31.91430855 C193.75443445 31.89239602 196.47373802 31.84690088 199.19378662 31.80076599 C220.94982973 31.58634403 239.19090904 38.13816153 255.10791016 53.4152832 C266.33134467 65.0975975 274.73903301 81.10915838 274.96875 97.55541992 C274.99284439 99.13394241 274.99284439 99.13394241 275.01742554 100.74435425 C275.06238336 105.57247986 275.10298472 110.40047292 275.12597656 115.22875977 C275.14246212 117.75977826 275.1696527 120.29075165 275.20800781 122.8215332 C275.53966089 144.85483317 273.84075958 160.54921966 258.68603516 177.5168457 C243.37306212 192.37356629 223.89816999 193.64756584 203.81494141 193.4699707 C201.9292332 193.46436163 200.04352057 193.46009775 198.1578064 193.45710754 C193.24234523 193.44576186 188.32715844 193.41638564 183.4118042 193.38299561 C178.37695017 193.35207061 173.34205094 193.33855472 168.30712891 193.32348633 C158.46324018 193.291504 148.6196255 193.23882258 138.77587891 193.17700195 C138.77587891 187.56700195 138.77587891 181.95700195 138.77587891 176.17700195 C162.53587891 176.17700195 186.29587891 176.17700195 210.77587891 176.17700195 C210.77587891 147.13700195 210.77587891 118.09700195 210.77587891 88.17700195 C216.05587891 88.17700195 221.33587891 88.17700195 226.77587891 88.17700195 C227.10587891 116.55700195 227.43587891 144.93700195 227.77587891 174.17700195 C240.44584387 169.10901597 249.02992302 163.81646835 254.58837891 151.30200195 C258.43647485 142.16121741 257.96231516 132.34235485 257.96118164 122.59521484 C257.96335654 120.51093749 257.98153892 118.42720103 258.00048828 116.34301758 C258.08633487 96.40345219 254.47839018 79.74077877 240.90087891 64.61450195 C231.16768886 55.19528578 217.32260632 49.90070422 203.89111328 49.8581543 C203.14867371 49.84810867 202.40623413 49.83806305 201.64129639 49.82771301 C199.21741423 49.79712681 196.79364122 49.77991517 194.36962891 49.76293945 C192.67711463 49.74420797 190.9846095 49.7246331 189.29211426 49.70425415 C184.86008112 49.65313601 180.42801777 49.61340216 175.99584961 49.57611084 C171.46411796 49.53594313 166.93250977 49.48490931 162.40087891 49.43481445 C153.52596589 49.33829606 144.65098283 49.25381493 135.77587891 49.17700195 C135.98741104 49.70676636 136.19894318 50.23653076 136.41688538 50.78234863 C139.92504468 61.20200452 139.22903818 72.10354543 139.20947266 82.95825195 C139.21404058 85.18062499 139.21934796 87.40299661 139.22535706 89.62536621 C139.23426047 94.26845055 139.23189596 98.91136262 139.22192383 103.55444336 C139.21042814 109.48225213 139.23066957 115.4094657 139.25984097 121.33719635 C139.27825012 125.92193327 139.27790124 130.50652871 139.27220345 135.09129333 C139.27205086 137.27600439 139.27804276 139.46072542 139.29049492 141.645401 C139.36968067 157.8112444 138.45556689 169.78110388 127.03369141 182.0480957 C112.55224119 196.01878937 93.93473685 193.17700195 74.77587891 193.17700195 C74.77587891 150.60700195 74.77587891 108.03700195 74.77587891 64.17700195 C80.05587891 64.17700195 85.33587891 64.17700195 90.77587891 64.17700195 C90.77587891 101.13700195 90.77587891 138.09700195 90.77587891 176.17700195 C105.88396656 174.70748508 105.88396656 174.70748508 116.77587891 166.17700195 C121.62207229 159.37932131 121.92645548 152.47767491 121.92114258 144.26074219 C121.92450119 143.50192245 121.9278598 142.74310272 121.93132019 141.96128845 C121.94076498 139.46937388 121.94277044 136.97752704 121.94384766 134.4855957 C121.94706616 132.73551914 121.95043067 130.98544284 121.95393372 129.23536682 C121.95990988 125.5696653 121.96177532 121.9039873 121.96118164 118.23828125 C121.96108044 113.57754762 121.97469614 108.91696775 121.99195385 104.25627041 C122.00316428 100.63993154 122.00509805 97.0236287 122.00457191 93.40727425 C122.00573986 91.69115739 122.01009369 89.97503922 122.01790428 88.25893974 C122.10524113 67.07730024 119.59889497 48.98909779 104.90087891 32.61450195 C95.04436511 23.07594021 81.12979451 17.86931765 67.54663086 17.88647461 C66.76655167 17.87975739 65.98647247 17.87304016 65.18275452 17.86611938 C62.62648996 17.84726092 60.07048978 17.84322104 57.51416016 17.84106445 C55.71827593 17.83462685 53.92239272 17.82789779 52.12651062 17.82089233 C48.36841403 17.80894899 44.61040914 17.80520835 40.85229492 17.80639648 C36.06911941 17.80659922 31.28654106 17.77933115 26.50350666 17.74485207 C22.79454421 17.72245997 19.08572253 17.71856273 15.37669945 17.71961594 C13.61508317 17.71727715 11.85346197 17.70855238 10.09191322 17.6929512 C-6.47508383 17.55998662 -19.54548798 20.84852825 -33.41162109 30.36450195 C-50.77228574 47.7251666 -52.3820215 67.05750558 -52.39208984 90.3371582 C-52.39530941 92.09492519 -52.39867399 93.85269192 -52.4021759 95.61045837 C-52.40813522 99.27921164 -52.41001895 102.94794146 -52.40942383 106.61669922 C-52.40932202 111.2991374 -52.4230074 115.98142458 -52.44019604 120.66382694 C-52.451352 124.28853538 -52.45334198 127.9132076 -52.4528141 131.53793144 C-52.45398751 133.26376303 -52.45837308 134.98959575 -52.46614647 136.71541023 C-52.76624972 154.02742863 -52.76624972 154.02742863 -45.22412109 169.17700195 C-37.86244378 175.25838756 -30.69377958 175.31612391 -21.22412109 176.17700195 C-21.22412109 139.21700195 -21.22412109 102.25700195 -21.22412109 64.17700195 C-15.94412109 64.17700195 -10.66412109 64.17700195 -5.22412109 64.17700195 C-5.22412109 106.74700195 -5.22412109 149.31700195 -5.22412109 193.17700195 C-45.45918207 193.17700195 -45.45918207 193.17700195 -58.97412109 181.05200195 C-64.9547315 174.71708998 -69.32862286 165.7173295 -69.36456299 156.93565369 C-69.37027313 156.09622223 -69.37598328 155.25679077 -69.38186646 154.391922 C-69.38354324 153.02277901 -69.38354324 153.02277901 -69.38525391 151.62597656 C-69.39021881 150.65795105 -69.39518372 149.68992554 -69.40029907 148.69256592 C-69.41490918 145.48815194 -69.42172229 142.28378753 -69.42724609 139.0793457 C-69.43300033 136.8469696 -69.43875803 134.6145935 -69.44451904 132.38221741 C-69.45502703 127.69735484 -69.46087042 123.01250941 -69.46435547 118.32763672 C-69.469827 112.34482182 -69.49382731 106.36223603 -69.52232742 100.37949276 C-69.54102052 95.76474869 -69.54616304 91.15005895 -69.54769135 86.53528023 C-69.55070546 84.33102738 -69.55869172 82.12677521 -69.57187653 79.92255974 C-69.58906975 76.82612987 -69.58702399 73.73024824 -69.58056641 70.63378906 C-69.58978119 69.73519669 -69.59899597 68.83660431 -69.60848999 67.91078186 C-69.56562704 61.29818323 -68.21136866 55.4705267 -66.22412109 49.17700195 C-75.90901497 49.21524396 -85.59348347 49.27487134 -95.2780714 49.36090469 C-99.77629626 49.40021203 -104.27433025 49.4324818 -108.77270508 49.44799805 C-113.12368516 49.46327601 -117.47413993 49.49791524 -121.82488441 49.54531097 C-123.47478958 49.56001101 -125.12476979 49.56803634 -126.77474022 49.5688858 C-143.43338212 49.58606859 -159.94721259 52.90009345 -172.22412109 65.17700195 C-185.59895464 81.77121814 -188.41185813 97.01399228 -188.40942383 117.9440918 C-188.41161011 120.04146652 -188.42983382 122.13831342 -188.44873047 124.2355957 C-188.5117475 138.75700934 -187.306136 152.81972003 -177.03662109 164.05200195 C-171.73056738 168.88430087 -165.16087028 172.44281466 -158.22412109 174.17700195 C-157.89412109 145.79700195 -157.56412109 117.41700195 -157.22412109 88.17700195 C-151.94412109 88.17700195 -146.66412109 88.17700195 -141.22412109 88.17700195 C-141.22412109 117.21700195 -141.22412109 146.25700195 -141.22412109 176.17700195 C-117.46412109 176.17700195 -93.70412109 176.17700195 -69.22412109 176.17700195 C-69.22412109 181.78700195 -69.22412109 187.39700195 -69.22412109 193.17700195 C-80.0649475 193.24508444 -90.90562928 193.29999382 -101.74662209 193.33243847 C-106.78184652 193.34801911 -111.81691568 193.3691166 -116.85205078 193.40332031 C-121.7215055 193.43618728 -126.59081192 193.45391195 -131.46036911 193.46163368 C-133.3076854 193.46712856 -135.15499462 193.47785695 -137.00224686 193.49419212 C-156.75521353 193.66174 -175.02172572 191.25828017 -189.90771484 176.8137207 C-200.84836734 164.36019552 -205.89039503 150.93616445 -205.72021484 134.2980957 C-205.72239769 132.5372036 -205.72239769 132.5372036 -205.72462463 130.74073792 C-205.72297759 128.27944434 -205.71155208 125.81813917 -205.69067383 123.35693359 C-205.66166434 119.62007297 -205.67010363 115.8846307 -205.68310547 112.14770508 C-205.67686785 109.73949516 -205.66847674 107.33128965 -205.65771484 104.9230957 C-205.66065048 103.82275497 -205.66358612 102.72241425 -205.66661072 101.58872986 C-205.54068256 91.08220185 -203.41259381 81.38535199 -198.53662109 72.05200195 C-198.18776855 71.37387451 -197.83891602 70.69574707 -197.47949219 69.99707031 C-188.48777567 53.04120434 -173.45026351 40.4909076 -155.16162109 34.73950195 C-153.19148731 34.18547946 -151.2125858 33.6611261 -149.22412109 33.17700195 C-148.51246292 32.99681015 -147.80080475 32.81661835 -147.06758118 32.63096619 C-143.32577287 32.03357882 -139.66243469 32.12799948 -135.88891602 32.22216797 C-134.1762091 32.25514416 -132.46349617 32.28780898 -130.7507782 32.32020569 C-129.84735876 32.3389229 -128.94393932 32.35764011 -128.01314354 32.37692451 C-123.21076228 32.4692319 -118.4078926 32.52078465 -113.60498047 32.57739258 C-107.50119115 32.64943837 -101.39874754 32.73429405 -95.29614258 32.87646484 C-90.35602256 32.99046784 -85.41740637 33.05511095 -80.47609901 33.08683586 C-78.5984397 33.10775397 -76.72088791 33.14650053 -74.8439846 33.20373726 C-64.49611652 33.85053475 -64.49611652 33.85053475 -55.33331299 29.98010254 C-53.3115915 27.46656789 -51.75793246 25.00584429 -50.22412109 22.17700195 C-40.09645952 11.28257736 -27.56046749 4.66741916 -13.22412109 1.17700195 C-12.51017181 1.00139236 -11.79622253 0.82578278 -11.06063843 0.64485168 C-7.37061635 0.03622652 -3.72891024 0.01314765 0 0 Z " fill="#000000" transform="translate(221.22412109375,302.822998046875)"/>
<path d="M0 0 C1.75761406 -0.01913956 1.75761406 -0.01913956 3.55073547 -0.03866577 C4.80396103 -0.04089142 6.05718658 -0.04311707 7.34838867 -0.04541016 C9.30128059 -0.05539536 9.30128059 -0.05539536 11.29362488 -0.06558228 C14.04474198 -0.07752314 16.79573383 -0.08126647 19.546875 -0.08007812 C23.05040627 -0.07987525 26.55312351 -0.10715756 30.05646229 -0.14162254 C33.42461472 -0.16937934 36.79262362 -0.16804441 40.16088867 -0.17041016 C41.40804153 -0.18478119 42.6551944 -0.19915222 43.94013977 -0.21395874 C52.21339873 -0.17086058 58.82628422 0.82446838 65.29370117 6.25537109 C65.82092773 6.90634766 66.3481543 7.55732422 66.89135742 8.22802734 C67.70926758 9.200625 67.70926758 9.200625 68.54370117 10.19287109 C72.06456981 15.43028511 72.2275359 19.97696558 72.14916992 26.09130859 C72.14492508 27.34587105 72.14492508 27.34587105 72.14059448 28.6257782 C72.12944063 31.2850096 72.10434505 33.94389852 72.07885742 36.60302734 C72.06882142 38.41096517 72.05969665 40.2189083 72.05151367 42.02685547 C72.02951701 46.44821046 71.99502036 50.86931092 71.95385742 55.29052734 C72.54676071 55.41314941 73.139664 55.53577148 73.75053406 55.66210938 C77.93274298 56.55393348 81.90732341 57.46602799 85.84838867 59.16552734 C86.65856445 59.51099609 87.46874023 59.85646484 88.3034668 60.21240234 C89.1162207 60.56818359 89.92897461 60.92396484 90.76635742 61.29052734 C92.01449219 61.82419922 92.01449219 61.82419922 93.2878418 62.36865234 C96.89542049 63.91930365 100.45306149 65.50984397 103.95385742 67.29052734 C104.62328369 66.58444336 105.29270996 65.87835938 105.98242188 65.15087891 C108.50417403 62.50108875 111.05012578 59.87563386 113.60351562 57.25634766 C114.69897812 56.12598347 115.78804291 54.98937841 116.87011719 53.84619141 C124.47917615 45.81889779 131.42978278 39.51041789 143.07885742 38.85302734 C150.95499816 39.74226904 155.45460072 41.53355882 161.34838867 47.04833984 C161.86321304 47.52899399 162.37803741 48.00964813 162.90846252 48.50486755 C164.59898181 50.09114854 166.27801287 51.68875573 167.95385742 53.29052734 C168.53000793 53.84062469 169.10615845 54.39072205 169.69976807 54.95748901 C173.34681555 58.45181647 176.95820271 61.98021165 180.54736328 65.53393555 C181.78395089 66.75382357 183.02589743 67.96830144 184.27294922 69.17749023 C199.68018022 84.12312646 199.68018022 84.12312646 201.58276367 94.82958984 C201.18445994 113.33899862 186.35701841 124.0821804 173.95385742 136.29052734 C175.95561719 142.66262127 178.55958837 148.78396822 181.11987305 154.94677734 C181.46856445 155.80271484 181.81725586 156.65865234 182.17651367 157.54052734 C182.65229858 158.69294922 182.65229858 158.69294922 183.13769531 159.86865234 C184.07583556 162.6524846 184.53610574 165.38698273 184.95385742 168.29052734 C186.02756592 168.26958008 187.10127441 168.24863281 188.20751953 168.22705078 C192.22740103 168.15412905 196.24722521 168.10853994 200.26757812 168.07080078 C202.00075137 168.05080325 203.73385817 168.02359587 205.46679688 167.98876953 C225.36708356 167.5991296 225.36708356 167.5991296 233.29370117 174.25537109 C234.08454102 175.23183594 234.08454102 175.23183594 234.89135742 176.22802734 C235.70926758 177.200625 235.70926758 177.200625 236.54370117 178.19287109 C239.45235352 182.51959218 240.20738346 186.24782541 240.24438477 191.42260742 C240.25714447 192.63769485 240.26990417 193.85278229 240.28305054 195.10469055 C240.28638901 197.06259773 240.28638901 197.06259773 240.28979492 199.06005859 C240.29622907 200.42380409 240.30295788 201.78754823 240.30996704 203.15129089 C240.32192104 206.00673621 240.3256499 208.86206073 240.32446289 211.7175293 C240.32425999 215.35905845 240.35153913 218.99980463 240.38600731 222.64114857 C240.40835467 225.45777372 240.41229804 228.2742129 240.41124344 231.09091759 C240.41472142 233.08051214 240.436337 235.07004865 240.45834351 237.05952454 C240.41435182 245.8141949 239.3850004 251.21024921 233.64135742 258.04052734 C227.79169155 262.93792203 223.51799201 264.5066792 215.95385742 265.29052734 C215.79160023 262.53816461 215.67292463 259.79535258 215.57885742 257.04052734 C215.52858398 256.26322266 215.47831055 255.48591797 215.42651367 254.68505859 C215.3681375 252.40838804 215.38543601 250.49866937 215.95385742 248.29052734 C218.91479492 245.99365234 218.91479492 245.99365234 221.95385742 244.29052734 C223.03061185 241.42119313 223.08476701 238.65975981 223.09912109 235.6171875 C223.10550095 234.69588043 223.1118808 233.77457336 223.11845398 232.8253479 C223.1195668 231.83674774 223.12067963 230.84814758 223.12182617 229.82958984 C223.12515457 228.80626556 223.12848297 227.78294128 223.13191223 226.72860718 C223.13697195 224.56500701 223.13932085 222.40139905 223.13916016 220.23779297 C223.14134459 216.93492715 223.15950496 213.6323965 223.1784668 210.32958984 C223.18140135 208.22542432 223.18338573 206.12125721 223.18432617 204.01708984 C223.19510445 202.5402623 223.19510445 202.5402623 223.20610046 201.03359985 C223.18973313 196.09880914 223.07419854 191.85748762 220.95385742 187.29052734 C218.58002757 186.10361242 217.0620685 186.13479867 214.41235352 186.08520508 C213.47152924 186.06525986 212.53070496 186.04531464 211.56137085 186.02476501 C210.03475327 185.99969627 210.03475327 185.99969627 208.47729492 185.97412109 C206.9167186 185.94294945 206.9167186 185.94294945 205.32461548 185.91114807 C201.99276493 185.84562863 198.66083392 185.78675643 195.32885742 185.72802734 C193.07364068 185.68484441 190.81843215 185.64123019 188.56323242 185.59716797 C183.02685978 185.48994482 177.49040664 185.38818289 171.95385742 185.29052734 C171.76856979 184.62844269 171.58328217 183.96635803 171.39237976 183.28421021 C166.66546946 166.45314729 161.12345642 149.71499304 150.95385742 135.29052734 C152.24255335 132.44399705 153.57156996 130.44085124 155.82714844 128.28540039 C156.40437149 127.72769455 156.98159454 127.16998871 157.5763092 126.59538269 C158.19718918 126.00364761 158.81806915 125.41191254 159.45776367 124.80224609 C160.76889193 123.52615046 162.07942051 122.24943844 163.3894043 120.97216797 C165.45257397 118.97090076 167.51990712 116.97463583 169.59814453 114.98901367 C171.60669754 113.06533246 173.59569019 111.12307425 175.58276367 109.17724609 C176.20566788 108.59158371 176.82857208 108.00592133 177.47035217 107.4025116 C180.46732331 104.44160706 181.83021457 102.72502079 183.01000977 98.57910156 C182.95001235 95.0653398 182.85087087 94.19549661 180.42651367 91.78662109 C179.45222412 90.78477783 179.45222412 90.78477783 178.45825195 89.76269531 C177.63180176 88.94687988 176.80535156 88.13106445 175.95385742 87.29052734 C174.88319279 86.18140082 173.81556021 85.06934294 172.75024414 83.95507812 C169.65147478 80.72420956 166.5161393 77.53178837 163.36523438 74.35180664 C162.04215608 73.01203645 160.72448489 71.66690624 159.41210938 70.31665039 C157.49923342 68.34908687 155.57048909 66.39841807 153.63745117 64.45068359 C152.76533241 63.54456078 152.76533241 63.54456078 151.87559509 62.62013245 C149.27034908 60.02820359 147.39278961 58.45425965 143.91113281 57.15551758 C137.2315149 57.46046505 132.6777073 63.29264002 128.24291992 67.80615234 C127.62992035 68.42198181 127.01692078 69.03781128 126.38534546 69.67230225 C124.44506765 71.62369815 122.51189412 73.58196089 120.57885742 75.54052734 C119.25770752 76.87171785 117.93609748 78.20245185 116.61401367 79.53271484 C113.38861501 82.78006272 110.16956546 86.03358414 106.95385742 89.29052734 C103.95672737 88.13250868 101.10985838 86.91166373 98.30932617 85.33740234 C84.64894028 77.79785683 70.87079096 72.81857867 55.95385742 68.29052734 C55.93403809 67.01935059 55.91421875 65.74817383 55.89379883 64.43847656 C55.81754856 59.70829951 55.72886113 54.97842229 55.63647461 50.24853516 C55.59826504 48.20399916 55.56339832 46.15939777 55.53198242 44.11474609 C55.48615756 41.17049848 55.42819182 38.22669787 55.36791992 35.28271484 C55.35059311 33.91830765 55.35059311 33.91830765 55.33291626 32.52633667 C55.22324588 27.77715882 54.94081309 23.69784393 52.95385742 19.29052734 C50.4248372 18.02601723 48.64830221 18.14983144 45.81738281 18.12939453 C44.21045311 18.11498322 44.21045311 18.11498322 42.57106018 18.10028076 C41.40960983 18.09603088 40.24815948 18.09178101 39.05151367 18.08740234 C37.86287216 18.08170227 36.67423065 18.0760022 35.4495697 18.07012939 C32.93188368 18.06067058 30.41418522 18.05414193 27.89648438 18.05029297 C24.03583326 18.04057636 20.17571186 18.00955592 16.31518555 17.97802734 C13.87313143 17.97149867 11.43107349 17.96624767 8.98901367 17.96240234 C7.82958755 17.95005554 6.67016144 17.93770874 5.4756012 17.92498779 C3.86394325 17.92948944 3.86394325 17.92948944 2.21972656 17.93408203 C1.27311661 17.9304364 0.32650665 17.92679077 -0.64878845 17.92303467 C-3.07678206 18.10927631 -3.07678206 18.10927631 -4.8127594 19.56280518 C-7.06927086 22.72372462 -7.17340228 25.90028444 -7.25146484 29.69189453 C-7.27141006 30.55248474 -7.29135529 31.41307495 -7.31190491 32.29974365 C-7.3286174 33.21967102 -7.3453299 34.13959839 -7.36254883 35.08740234 C-7.39372047 36.51055756 -7.39372047 36.51055756 -7.42552185 37.96246338 C-7.49082192 40.98841216 -7.54981146 44.01444655 -7.60864258 47.04052734 C-7.65184638 49.09392156 -7.69546127 51.14730716 -7.73950195 53.20068359 C-7.84648331 58.23054414 -7.9478058 63.26049066 -8.04614258 68.29052734 C-8.68414795 68.49097656 -9.32215332 68.69142578 -9.97949219 68.89794922 C-32.8481025 76.07145487 -32.8481025 76.07145487 -53.85864258 87.41552734 C-54.91051758 88.03427734 -55.96239258 88.65302734 -57.04614258 89.29052734 C-61.37010382 88.10870713 -64.3924292 84.1560161 -67.42114258 81.04052734 C-68.02748535 80.42661133 -68.63382812 79.81269531 -69.25854492 79.18017578 C-71.84704103 76.55903198 -74.42353222 73.92619946 -77.0012207 71.29443359 C-78.88710607 69.37239099 -80.77894789 67.45635561 -82.67114258 65.54052734 C-83.25041504 64.9446582 -83.8296875 64.34878906 -84.42651367 63.73486328 C-89.23604757 58.74488258 -89.23604757 58.74488258 -95.78320312 57.19628906 C-100.71583722 58.85046534 -103.63893768 62.1495952 -107.25317383 65.79833984 C-108.01917404 66.55718475 -108.78517426 67.31602966 -109.5743866 68.09786987 C-111.1883145 69.70402371 -112.79588043 71.31659226 -114.39746094 72.93505859 C-116.84836635 75.40517058 -119.32714201 77.84458236 -121.80981445 80.28271484 C-123.37604122 81.84865122 -124.94055367 83.41630448 -126.50317383 84.98583984 C-127.24477249 85.71215607 -127.98637115 86.43847229 -128.7504425 87.1867981 C-131.97470845 90.48529658 -133.83921066 92.59953845 -135.18188477 97.08300781 C-135.03471861 100.56046989 -134.82702059 101.50823879 -132.41723633 103.91552734 C-131.76867676 104.58326172 -131.12011719 105.25099609 -130.4519043 105.93896484 C-129.65800293 106.71498047 -128.86410156 107.49099609 -128.04614258 108.29052734 C-127.0691824 109.28088096 -126.09421434 110.27320224 -125.12084961 111.26708984 C-121.80956707 114.63472461 -118.46070368 117.96356289 -115.10864258 121.29052734 C-113.93588249 122.45826109 -112.7633546 123.62622808 -111.59106445 124.79443359 C-108.74542569 127.62915969 -105.89666805 130.46071559 -103.04614258 133.29052734 C-104.24002487 136.39885994 -105.53003997 139.3075417 -107.18286133 142.19677734 C-114.8939537 156.02209807 -119.72623076 170.11083722 -124.04614258 185.29052734 C-124.62830032 185.29639359 -125.21045807 185.30225983 -125.81025696 185.30830383 C-131.86113219 185.37216268 -137.91147182 185.45656239 -143.96191406 185.55297852 C-146.22095688 185.5862642 -148.4800836 185.61428468 -150.73925781 185.63696289 C-153.98384406 185.67044161 -157.2276589 185.72275452 -160.47192383 185.77880859 C-161.99079948 185.78839348 -161.99079948 185.78839348 -163.5403595 185.798172 C-164.48110825 185.81796616 -165.42185699 185.83776031 -166.39111328 185.8581543 C-167.2194014 185.86925735 -168.04768951 185.88036041 -168.90107727 185.89179993 C-171.58182329 186.39010034 -172.43788901 187.1113286 -174.04614258 189.29052734 C-175.08438826 192.18972701 -175.17701295 194.91746166 -175.19140625 197.97973633 C-175.1977861 198.90427109 -175.20416595 199.82880585 -175.21073914 200.78135681 C-175.21185196 201.77309402 -175.21296478 202.76483124 -175.21411133 203.78662109 C-175.21743973 204.81231705 -175.22076813 205.838013 -175.22419739 206.89479065 C-175.22925667 209.062587 -175.23160602 211.23039112 -175.23144531 213.39819336 C-175.23363203 216.71204463 -175.25179912 220.02556307 -175.27075195 223.33935547 C-175.27368603 225.44677621 -175.27567073 227.55419852 -175.27661133 229.66162109 C-175.28379684 230.65133408 -175.29098236 231.64104706 -175.29838562 232.66075134 C-175.36803138 239.23862411 -175.36803138 239.23862411 -173.04614258 245.29052734 C-172.18633789 245.70947266 -171.3265332 246.12841797 -170.44067383 246.56005859 C-168.04614258 248.29052734 -168.04614258 248.29052734 -167.64135742 250.11230469 C-167.55340534 252.41911797 -167.61072811 254.67290839 -167.73364258 256.97802734 C-167.75620117 257.7753125 -167.77875977 258.57259766 -167.80200195 259.39404297 C-167.86087314 261.36034068 -167.95055503 263.32567225 -168.04614258 265.29052734 C-175.71539945 264.23757609 -182.63817685 262.63102101 -187.61645508 256.29052734 C-190.83981508 251.28050495 -192.16793308 247.39015965 -192.22314453 241.38549805 C-192.23597977 240.17025955 -192.248815 238.95502106 -192.26203918 237.70295715 C-192.26942612 236.38736313 -192.27681305 235.0717691 -192.28442383 233.71630859 C-192.28849936 233.04502615 -192.29257488 232.37374371 -192.29677391 231.68211937 C-192.3176205 228.1262175 -192.33192599 224.57035401 -192.34130859 221.0144043 C-192.35234601 217.35717006 -192.38671795 213.70054879 -192.42648029 210.04353046 C-192.45274142 207.21834757 -192.46100895 204.39330834 -192.46459007 201.56801414 C-192.47177737 199.56953104 -192.49817862 197.57114652 -192.52497864 195.5728302 C-192.50504796 187.18654195 -191.73038456 181.5714077 -186.11645508 175.04833984 C-185.47450195 174.50951172 -184.83254883 173.97068359 -184.17114258 173.41552734 C-183.5343457 172.86123047 -182.89754883 172.30693359 -182.24145508 171.73583984 C-176.857769 168.19142018 -171.58169835 168.01278883 -165.36645508 168.09521484 C-164.14730911 168.09945969 -164.14730911 168.09945969 -162.90353394 168.10379028 C-160.32591583 168.11492115 -157.74865439 168.14001219 -155.17114258 168.16552734 C-153.41593929 168.17556633 -151.66073051 168.18469057 -149.90551758 168.19287109 C-145.61892332 168.2148372 -141.33259328 168.24931757 -137.04614258 168.29052734 C-136.89048828 167.46717896 -136.89048828 167.46717896 -136.73168945 166.62719727 C-135.58021558 160.9691967 -133.84508193 155.88866405 -131.54614258 150.60302734 C-130.92966503 149.16243022 -130.31504388 147.72103709 -129.70239258 146.27880859 C-129.29730469 145.34355347 -129.29730469 145.34355347 -128.8840332 144.3894043 C-127.8208763 141.72624583 -126.93448886 139.01628921 -126.04614258 136.29052734 C-126.62058105 135.73179932 -127.19501953 135.17307129 -127.78686523 134.59741211 C-130.42308829 132.02413333 -133.04711298 129.43873662 -135.67114258 126.85302734 C-137.0265918 125.5352832 -137.0265918 125.5352832 -138.40942383 124.19091797 C-146.15322431 116.53190362 -153.07039234 109.54646772 -153.42114258 98.22802734 C-153.47012695 97.16455078 -153.51911133 96.10107422 -153.56958008 95.00537109 C-152.24318165 85.59190164 -146.49424577 79.00648093 -139.89379883 72.57958984 C-139.11604599 71.8041684 -138.33829315 71.02874695 -137.53697205 70.22982788 C-135.90308373 68.60561833 -134.26321783 66.98740165 -132.61767578 65.375 C-130.10678782 62.91370922 -127.61524217 60.43406658 -125.1262207 57.95068359 C-123.52900553 56.36754975 -121.93073393 54.78548086 -120.33129883 53.20458984 C-119.59049576 52.46914948 -118.84969269 51.73370911 -118.08644104 50.97598267 C-111.1105076 44.15843331 -105.3430896 39.92022205 -95.29614258 38.91552734 C-82.66356797 39.44244918 -75.50421561 46.93491358 -67.35864258 55.54052734 C-66.25419087 56.68016713 -65.14808114 57.81820252 -64.0402832 58.95458984 C-61.35611059 61.71512455 -58.69525613 64.4963486 -56.04614258 67.29052734 C-55.48741455 67.03360107 -54.92868652 66.7766748 -54.35302734 66.51196289 C-51.77373072 65.32919739 -49.19123051 64.15358783 -46.60864258 62.97802734 C-45.73014648 62.57390625 -44.85165039 62.16978516 -43.9465332 61.75341797 C-29.7071563 55.29052734 -29.7071563 55.29052734 -24.04614258 55.29052734 C-24.06708984 54.18128906 -24.08803711 53.07205078 -24.10961914 51.92919922 C-24.18242725 47.78447556 -24.22808953 43.63980758 -24.26586914 39.49462891 C-24.28589217 37.7061205 -24.31311912 35.9176768 -24.34790039 34.12939453 C-24.39683213 31.54752572 -24.41920422 28.96652785 -24.43676758 26.38427734 C-24.45741272 25.59436401 -24.47805786 24.80445068 -24.49932861 23.99060059 C-24.50199913 17.27123566 -22.50946266 12.15276565 -18.11645508 7.04833984 C-17.47450195 6.50951172 -16.83254883 5.97068359 -16.17114258 5.41552734 C-15.5343457 4.86123047 -14.89754883 4.30693359 -14.24145508 3.73583984 C-9.76223078 0.78688435 -5.28504083 0.03929205 0 0 Z " fill="#000000" transform="translate(232.046142578125,14.70947265625)"/>
<path d="M0 0 C2.65200545 2.1554441 5.20969022 4.3831877 7.75390625 6.6640625 C8.43324219 7.20160156 9.11257813 7.73914063 9.8125 8.29296875 C29.84328566 24.37402203 42.50849402 51.49620884 45.75390625 76.6640625 C45.86168649 79.45768482 45.84926027 82.2439437 45.81640625 85.0390625 C45.81189453 85.77511719 45.80738281 86.51117188 45.80273438 87.26953125 C45.79105767 89.06774408 45.77312636 90.86591447 45.75390625 92.6640625 C43.10800611 92.69090929 40.46237529 92.71082607 37.81640625 92.7265625 C37.06166016 92.73494141 36.30691406 92.74332031 35.52929688 92.75195312 C33.60396312 92.76058691 31.67855044 92.71630583 29.75390625 92.6640625 C27.89888094 90.80903719 28.40633081 88.12256078 28.21044922 85.6340332 C26.14402278 60.29710475 15.22335805 36.47442119 -4.24609375 19.6640625 C-17.443061 9.29883316 -31.80443773 2.10398344 -48.24609375 -1.3359375 C-49.14585937 -1.52671875 -50.045625 -1.7175 -50.97265625 -1.9140625 C-76.06931491 -5.14847674 -100.59830618 -0.1824782 -121.37109375 14.4375 C-142.3971145 30.72123889 -156.07669152 52.2089117 -160.24609375 78.6640625 C-160.591646 82.18207844 -160.85630442 85.68464932 -161.03515625 89.21484375 C-161.24609375 91.6640625 -161.24609375 91.6640625 -162.24609375 92.6640625 C-164.94264229 92.73725871 -167.61300833 92.75648787 -170.30859375 92.7265625 C-171.06720703 92.72205078 -171.82582031 92.71753906 -172.60742188 92.71289062 C-174.48701246 92.7010693 -176.36656274 92.68313328 -178.24609375 92.6640625 C-179.62209967 64.60883065 -169.62255962 38.73305084 -151.24609375 17.6640625 C-150.70726562 16.98085937 -150.1684375 16.29765625 -149.61328125 15.59375 C-114.49457021 -27.99580591 -43.68016535 -31.43289877 0 0 Z " fill="#000000" transform="translate(322.24609375,139.3359375)"/>
<path d="M0 0 C6.93446683 5.00487606 11.34944165 11.05238045 15.24609375 18.62109375 C15.66246094 19.40742188 16.07882812 20.19375 16.5078125 21.00390625 C21.1732421 31.44792058 20.92818515 45.38865154 17.68359375 56.24609375 C15.37825027 61.98923013 12.1601971 66.85153689 8.24609375 71.62109375 C7.67246094 72.33136719 7.09882813 73.04164063 6.5078125 73.7734375 C-1.4281541 82.62705335 -13.01663306 87.62736295 -24.75390625 88.62109375 C-25.43710937 88.67910156 -26.1203125 88.73710937 -26.82421875 88.796875 C-28.83312341 88.87414056 -30.75072028 88.79117558 -32.75390625 88.62109375 C-33.56085938 88.55277344 -34.3678125 88.48445313 -35.19921875 88.4140625 C-46.56595745 86.90622981 -57.72364944 81.22566073 -65.4765625 72.734375 C-75.49328294 59.27166911 -78.13899073 46.12437531 -76.75390625 29.62109375 C-75.93829217 25.58936507 -74.67388417 22.24705825 -72.75390625 18.62109375 C-72.08294922 17.31785156 -72.08294922 17.31785156 -71.3984375 15.98828125 C-64.66508621 3.89352157 -54.44382689 -3.62864708 -41.22265625 -7.68359375 C-26.43067187 -10.64865368 -12.72101302 -8.16180195 0 0 Z M-44.75390625 12.62109375 C-45.3778125 12.97171875 -46.00171875 13.32234375 -46.64453125 13.68359375 C-53.51948857 17.98791485 -57.64616777 24.90543569 -59.75390625 32.62109375 C-60.96645431 42.90443402 -59.78021753 51.0891733 -53.75390625 59.62109375 C-47.78243449 66.53147616 -40.32476817 70.35324955 -31.31640625 71.55859375 C-21.89659346 72.08410632 -13.88243891 68.68444337 -6.75390625 62.62109375 C0.81164496 54.49390773 2.83679882 47.35602696 2.59765625 36.35546875 C1.85498351 28.46663389 -1.06339821 22.18514606 -6.75390625 16.62109375 C-18.08360956 7.89302602 -31.94286166 4.83197864 -44.75390625 12.62109375 Z " fill="#000000" transform="translate(420.75390625,239.37890625)"/>
<path d="M0 0 C6.93446683 5.00487606 11.34944165 11.05238045 15.24609375 18.62109375 C15.66246094 19.40742188 16.07882813 20.19375 16.5078125 21.00390625 C21.1732421 31.44792058 20.92818515 45.38865154 17.68359375 56.24609375 C15.37825027 61.98923013 12.1601971 66.85153689 8.24609375 71.62109375 C7.67246094 72.33136719 7.09882813 73.04164063 6.5078125 73.7734375 C-1.4281541 82.62705335 -13.01663306 87.62736295 -24.75390625 88.62109375 C-25.43710938 88.67910156 -26.1203125 88.73710937 -26.82421875 88.796875 C-28.83312341 88.87414056 -30.75072028 88.79117558 -32.75390625 88.62109375 C-33.56085938 88.55277344 -34.3678125 88.48445313 -35.19921875 88.4140625 C-46.56595745 86.90622981 -57.72364944 81.22566073 -65.4765625 72.734375 C-75.49328294 59.27166911 -78.13899073 46.12437531 -76.75390625 29.62109375 C-75.93829217 25.58936507 -74.67388417 22.24705825 -72.75390625 18.62109375 C-72.08294922 17.31785156 -72.08294922 17.31785156 -71.3984375 15.98828125 C-64.66508621 3.89352157 -54.44382689 -3.62864708 -41.22265625 -7.68359375 C-26.43067187 -10.64865368 -12.72101302 -8.16180195 0 0 Z M-44.75390625 12.62109375 C-45.3778125 12.97171875 -46.00171875 13.32234375 -46.64453125 13.68359375 C-53.51948857 17.98791485 -57.64616777 24.90543569 -59.75390625 32.62109375 C-60.96645431 42.90443402 -59.78021753 51.0891733 -53.75390625 59.62109375 C-47.78243449 66.53147616 -40.32476817 70.35324955 -31.31640625 71.55859375 C-21.89659346 72.08410632 -13.88243891 68.68444337 -6.75390625 62.62109375 C0.81164496 54.49390773 2.83679882 47.35602696 2.59765625 36.35546875 C1.85498351 28.46663389 -1.06339821 22.18514606 -6.75390625 16.62109375 C-18.08360956 7.89302602 -31.94286166 4.83197864 -44.75390625 12.62109375 Z " fill="#000000" transform="translate(148.75390625,239.37890625)"/>
<path d="M0 0 C6.93446683 5.00487606 11.34944165 11.05238045 15.24609375 18.62109375 C15.66246094 19.40742188 16.07882812 20.19375 16.5078125 21.00390625 C21.1732421 31.44792058 20.92818515 45.38865154 17.68359375 56.24609375 C15.37825027 61.98923013 12.1601971 66.85153689 8.24609375 71.62109375 C7.67246094 72.33136719 7.09882813 73.04164063 6.5078125 73.7734375 C-1.4281541 82.62705335 -13.01663306 87.62736295 -24.75390625 88.62109375 C-25.43710937 88.67910156 -26.1203125 88.73710937 -26.82421875 88.796875 C-28.83312341 88.87414056 -30.75072028 88.79117558 -32.75390625 88.62109375 C-33.56085938 88.55277344 -34.3678125 88.48445313 -35.19921875 88.4140625 C-46.56595745 86.90622981 -57.72364944 81.22566073 -65.4765625 72.734375 C-75.49328294 59.27166911 -78.13899073 46.12437531 -76.75390625 29.62109375 C-75.93829217 25.58936507 -74.67388417 22.24705825 -72.75390625 18.62109375 C-72.08294922 17.31785156 -72.08294922 17.31785156 -71.3984375 15.98828125 C-64.66508621 3.89352157 -54.44382689 -3.62864708 -41.22265625 -7.68359375 C-26.43067187 -10.64865368 -12.72101302 -8.16180195 0 0 Z M-44.75390625 12.62109375 C-45.3778125 12.97171875 -46.00171875 13.32234375 -46.64453125 13.68359375 C-53.51948857 17.98791485 -57.64616777 24.90543569 -59.75390625 32.62109375 C-60.96645431 42.90443402 -59.78021753 51.0891733 -53.75390625 59.62109375 C-47.78243449 66.53147616 -40.32476817 70.35324955 -31.31640625 71.55859375 C-21.89659346 72.08410632 -13.88243891 68.68444337 -6.75390625 62.62109375 C0.81164496 54.49390773 2.83679882 47.35602696 2.59765625 36.35546875 C1.85498351 28.46663389 -1.06339821 22.18514606 -6.75390625 16.62109375 C-18.08360956 7.89302602 -31.94286166 4.83197864 -44.75390625 12.62109375 Z " fill="#000000" transform="translate(284.75390625,207.37890625)"/>
<path d="M0 0 C21.12 0 42.24 0 64 0 C64 5.61 64 11.22 64 17 C42.88 17 21.76 17 0 17 C0 11.39 0 5.78 0 0 Z " fill="#000000" transform="translate(224,479)"/>
</svg>
