<?xml version="1.0" encoding="UTF-8"?>
<svg version="1.1" xmlns="http://www.w3.org/2000/svg" width="512" height="512">
<path d="M0 0 C0.71128241 -0.00709439 1.42256481 -0.01418877 2.15540123 -0.02149814 C4.53335353 -0.03906847 6.90966909 -0.02098031 9.28759766 -0.00291443 C10.99449406 -0.00805367 12.70138515 -0.01533498 14.40826416 -0.02459717 C19.04058718 -0.04311897 23.67233498 -0.03016778 28.30463409 -0.01050687 C33.152315 0.00587454 37.99995933 -0.00293256 42.84765625 -0.00802612 C50.98853752 -0.01254765 59.12918906 0.00332641 67.27001953 0.03126526 C76.68196157 0.06331743 86.09348928 0.06330162 95.50546074 0.04605049 C104.55945913 0.03018675 113.61330562 0.03691798 122.66729736 0.0539875 C126.52048791 0.06086013 130.37355677 0.05982337 134.22674561 0.05244255 C138.76426021 0.04478143 143.30130329 0.05690007 147.83873749 0.08429146 C149.50401154 0.09117821 151.1693296 0.09127013 152.83460236 0.08407593 C155.10803454 0.07538612 157.38000993 0.09132698 159.65332031 0.11352539 C161.56136948 0.11773577 161.56136948 0.11773577 163.50796509 0.12203121 C167.40259569 0.71602913 169.06110998 1.87582354 171.82666016 4.62818909 C172.93121549 7.35238084 172.94919978 9.92535251 172.94018555 12.84596252 C172.94011002 13.66651123 172.94003448 14.48705994 172.93995667 15.33247375 C172.93479538 16.20865356 172.92963409 17.08483337 172.92431641 17.98756409 C172.92219398 19.34413116 172.92219398 19.34413116 172.92002869 20.72810364 C172.91443926 23.61149935 172.90188869 26.49481691 172.88916016 29.37818909 C172.88414379 31.33521921 172.87958112 33.29225056 172.87548828 35.24928284 C172.86447329 40.04228162 172.8472159 44.83522211 172.82666016 49.62818909 C173.92365234 49.5933844 175.02064453 49.55857971 176.15087891 49.52272034 C177.60529061 49.49457043 179.05971896 49.46727156 180.51416016 49.44068909 C181.59600586 49.40298401 181.59600586 49.40298401 182.69970703 49.36451721 C187.27527918 49.30183814 190.30273864 49.61422282 193.82666016 52.62818909 C195.52175267 56.10869282 196.07530294 58.89582964 196.06716919 62.74716187 C196.07129318 64.25939835 196.07129318 64.25939835 196.07550049 65.80218506 C196.06830994 66.89694656 196.06111938 67.99170807 196.05371094 69.11964417 C196.05400299 70.28104919 196.05429504 71.44245422 196.05459595 72.63905334 C196.05320335 76.47535185 196.03764514 80.31145579 196.02197266 84.14772034 C196.01824228 86.80858692 196.01529703 89.46944275 196.01339722 92.13031006 C196.00718691 98.41651122 195.99078219 104.70264262 195.97069824 110.9888131 C195.94832524 118.14718689 195.93734229 125.30556405 195.92730737 132.4639641 C195.90641555 147.18540807 195.87124831 161.90679736 195.82666016 176.62818909 C196.59961363 176.93347534 197.3725671 177.2387616 198.16894341 177.55329895 C200.86887668 178.64526319 203.44468828 179.8736691 206.04980469 181.17506409 C207.0692215 181.68319641 208.08863831 182.19132874 209.13894653 182.71485901 C210.78260696 183.5382074 210.78260696 183.5382074 212.45947266 184.37818909 C213.60592255 184.95093567 214.75237244 185.52368225 215.93356323 186.11378479 C218.36684349 187.32968825 220.79939647 188.54703155 223.23144531 189.76539612 C226.28803053 191.29649202 229.34636657 192.82405074 232.40524101 194.35056686 C244.03305775 200.15513123 255.63155678 206.00022707 267.10876465 212.09797668 C272.590255 215.00181692 278.11845765 217.79926478 283.67822266 220.55006409 C284.48635406 220.95019714 285.29448547 221.3503302 286.12710571 221.7625885 C289.40138168 223.38163011 292.67692715 224.99799744 295.95605469 226.60719299 C319.04029311 237.94863852 319.04029311 237.94863852 322.82666016 243.62818909 C323.01690897 246.7145674 323.08728335 249.71001598 323.06716919 252.79656982 C323.06973246 254.22149096 323.06973246 254.22149096 323.07234752 255.67519838 C323.07565312 258.87208803 323.06462107 262.0687698 323.05371094 265.26564026 C323.05314706 267.55176793 323.05346293 269.83789597 323.05459595 272.12402344 C323.05517136 278.34268725 323.04338661 284.56127439 323.02944803 290.77992034 C323.016972 297.27420526 323.01577265 303.76849181 323.01339722 310.26278687 C323.00788102 321.16707226 322.99537626 332.07132925 322.97753906 342.9756012 C322.9591847 354.20769611 322.94502603 365.43978338 322.93652344 376.67189026 C322.93599799 377.36408506 322.93547254 378.05627987 322.93493117 378.76945027 C322.93232112 382.24194285 322.9297937 385.71443548 322.92730737 389.18692815 C322.90656952 418.00070047 322.87119079 446.8144441 322.82666016 475.62818909 C323.99583984 475.58178284 325.16501953 475.53537659 326.36962891 475.48756409 C327.91778036 475.45003314 329.46595955 475.4136344 331.01416016 475.37818909 C331.78308594 475.34467346 332.55201172 475.31115784 333.34423828 475.27662659 C337.36622957 475.20757953 339.33529672 475.3217148 342.8359375 477.50514221 C345.09430852 479.91362816 345.50740363 480.87277043 345.45166016 484.12818909 C345.46455078 484.88100159 345.47744141 485.63381409 345.49072266 486.40943909 C344.48152254 489.78135476 342.76789595 490.75261271 339.82666016 492.62818909 C336.97502105 493.0135653 334.51371303 493.16827173 331.6665802 493.13434696 C330.8451361 493.14046032 330.023692 493.14657368 329.17735565 493.15287229 C326.41278895 493.1685269 323.6490927 493.15558423 320.88452148 493.14285278 C318.88736107 493.14817561 316.89020465 493.15523976 314.89305592 493.16389984 C309.39555842 493.18258886 303.89832916 493.17620064 298.40082026 493.16574681 C292.47571597 493.15877259 286.55066778 493.17473915 280.62557983 493.18774414 C269.68611142 493.2081653 258.7467337 493.21019519 247.80725119 493.20252768 C237.70178198 493.19545924 227.59634461 493.19539324 217.49087524 493.20239067 C216.13617446 493.20330199 214.78147368 493.20421276 213.42677289 493.20512296 C211.38545453 493.20650606 209.34413618 493.20789715 207.30281784 493.20930909 C188.32113316 493.22229261 169.33945916 493.22740068 150.35777283 493.21577549 C149.28415054 493.21511853 149.28415054 493.21511853 148.18883891 493.21444831 C142.37617354 493.21084135 136.56350833 493.20700665 130.75084312 493.20315738 C108.07262031 493.1883072 85.39451791 493.19709205 62.71630859 493.22511292 C37.24608896 493.25652325 11.77594062 493.27151658 -13.69429874 493.2613129 C-16.40871746 493.26027609 -19.12313619 493.25928887 -21.83755493 493.25832939 C-22.84011776 493.25795606 -22.84011776 493.25795606 -23.86293437 493.25757519 C-33.96287797 493.25413168 -44.06275871 493.2634543 -54.16268921 493.27910042 C-65.64504219 493.29658522 -77.12723146 493.29656175 -88.60957789 493.27374876 C-94.4714537 493.26257186 -100.33304067 493.25952209 -106.19490433 493.27804947 C-111.55645111 493.29477791 -116.91745541 493.28860708 -122.27896655 493.26383268 C-124.22303613 493.25892383 -126.16714884 493.262534 -128.11118257 493.27532012 C-130.7458701 493.2914041 -133.37865946 493.27694854 -136.01325989 493.25460148 C-136.77519878 493.26659316 -137.53713766 493.27858483 -138.32216561 493.2909399 C-142.24448041 493.22259978 -144.01888547 492.74830394 -147.15209484 490.31169456 C-149.17333984 487.62818909 -149.17333984 487.62818909 -149.67333984 484.06568909 C-149.1602108 480.53792689 -148.71146075 479.07230552 -146.17333984 476.62818909 C-139.84088376 474.51737039 -132.84833464 475.62818909 -126.17333984 475.62818909 C-126.17333984 447.24818909 -126.17333984 418.86818909 -126.17333984 389.62818909 C-130.46333984 392.59818909 -134.75333984 395.56818909 -139.17333984 398.62818909 C-143.67333984 399.50318909 -143.67333984 399.50318909 -147.17333984 398.62818909 C-152.06562452 394.41913727 -155.64804535 389.13759343 -159.42333984 383.94068909 C-160.37853516 382.64034729 -160.37853516 382.64034729 -161.35302734 381.31373596 C-167.21913219 373.29464582 -167.21913219 373.29464582 -167.69677734 366.79615784 C-166.21831592 360.67267956 -158.09684282 356.47371081 -153.29833984 353.00318909 C-151.60426646 351.7689005 -149.91025692 350.53452429 -148.21630859 349.30006409 C-147.37245605 348.68711487 -146.52860352 348.07416565 -145.65917969 347.44264221 C-143.31576638 345.73214843 -140.98603197 344.00500881 -138.66162109 342.26881409 C-137.97503418 341.75786194 -137.28844727 341.24690979 -136.58105469 340.72047424 C-135.29118635 339.75986598 -134.00365203 338.79611377 -132.71875 337.82887268 C-128.39813082 334.62818909 -128.39813082 334.62818909 -126.17333984 334.62818909 C-126.17702702 333.68874325 -126.18071419 332.74929741 -126.18451309 331.78138351 C-126.27324926 308.93920233 -126.33901332 286.09704346 -126.38058853 263.25472641 C-126.40122758 252.20841604 -126.42937387 241.16221942 -126.47509766 230.11598206 C-126.51492427 220.48984523 -126.54076288 210.86379078 -126.54969382 201.23757386 C-126.55491564 196.13893328 -126.56721672 191.04052836 -126.59626007 185.9419632 C-126.62336319 181.14524879 -126.63179518 176.34886767 -126.62577057 171.55208397 C-126.6268731 169.78960803 -126.63485734 168.02712121 -126.65016174 166.26471138 C-126.67001033 163.86159366 -126.66529856 161.45974071 -126.65435791 159.05659485 C-126.66600928 158.35620268 -126.67766064 157.6558105 -126.68966508 156.93419433 C-126.64893418 153.63332451 -126.35949089 151.88083085 -124.37976837 149.19397736 C-121.03198944 146.8182317 -117.68338739 147.10299521 -113.73291016 147.17408752 C-112.45919304 147.17321136 -112.45919304 147.17321136 -111.15974426 147.1723175 C-108.35656679 147.17510143 -105.55445626 147.20620763 -102.75146484 147.23756409 C-100.80662619 147.24502539 -98.86178001 147.25071884 -96.91693115 147.25471497 C-91.80067145 147.26998001 -86.6848667 147.30926948 -81.56878662 147.35353088 C-76.34718989 147.39446472 -71.12551956 147.41272196 -65.90380859 147.43287659 C-55.66011923 147.47576276 -45.41676739 147.54402477 -35.17333984 147.62818909 C-35.18222229 146.47196045 -35.19110474 145.31573181 -35.20025635 144.12446594 C-35.28129207 133.23581958 -35.34128122 122.34723428 -35.38058853 111.45835495 C-35.40147612 105.86005347 -35.42981548 100.26199514 -35.47509766 94.66383362 C-35.51851311 89.26273962 -35.54246812 83.8618797 -35.55284882 78.46062469 C-35.56024788 76.39848901 -35.57469631 74.33636635 -35.59626007 72.27433014 C-35.62523662 69.38907032 -35.62929822 66.50478159 -35.62744141 63.61940002 C-35.64182251 62.76416245 -35.65620361 61.90892487 -35.67102051 61.027771 C-35.63055462 55.22858679 -35.63055462 55.22858679 -33.2699585 52.1287384 C-29.11731074 49.15668969 -25.49332749 49.51350983 -20.54833984 49.56568909 C-19.74654297 49.57020081 -18.94474609 49.57471252 -18.11865234 49.57936096 C-16.13684978 49.59115741 -14.15508551 49.60909304 -12.17333984 49.62818909 C-12.19952393 48.32148254 -12.22570801 47.014776 -12.25268555 45.66847229 C-12.34328309 40.81382921 -12.40062429 35.95926064 -12.44799805 31.10401917 C-12.47312035 29.00395638 -12.50722442 26.90398085 -12.55053711 24.80421448 C-12.61128856 21.78308069 -12.63957247 18.76310413 -12.66162109 15.74147034 C-12.68742752 14.80483047 -12.71323395 13.86819061 -12.73982239 12.90316772 C-12.74020004 12.02263229 -12.7405777 11.14209686 -12.7409668 10.23487854 C-12.75206985 9.46432632 -12.76317291 8.69377411 -12.77461243 7.89987183 C-11.03943088 1.34413973 -6.11017222 0.00281632 0 0 Z M4.82666016 17.62818909 C4.82666016 28.18818909 4.82666016 38.74818909 4.82666016 49.62818909 C54.65666016 49.62818909 104.48666016 49.62818909 155.82666016 49.62818909 C155.82666016 39.06818909 155.82666016 28.50818909 155.82666016 17.62818909 C105.99666016 17.62818909 56.16666016 17.62818909 4.82666016 17.62818909 Z M-18.17333984 66.62818909 C-18.58124331 102.2861755 -18.58124331 102.2861755 -18.85693359 137.94459534 C-18.93999913 152.48712802 -19.03763135 167.02852493 -19.22949219 181.57008362 C-19.36916091 192.16094684 -19.4593836 202.7508886 -19.49057877 213.34264719 C-19.50881178 218.95002945 -19.55156031 224.554776 -19.65356064 230.1613121 C-19.74887244 235.44319221 -19.77785176 240.72136229 -19.75684738 246.00402069 C-19.76068712 247.93831968 -19.7883858 249.8727475 -19.84221649 251.80630112 C-20.40991695 261.61734834 -20.40991695 261.61734834 -16.79777575 270.37603426 C-13.013836 273.89923655 -8.72376752 276.23329595 -4.17333984 278.62818909 C-2.60715739 279.70827291 -1.05495608 280.80994268 0.46337891 281.95631409 C1.46872681 282.68104919 1.46872681 282.68104919 2.49438477 283.42042542 C3.16091064 283.90148743 3.82743652 284.38254944 4.51416016 284.87818909 C5.24965088 285.40759094 5.9851416 285.9369928 6.74291992 286.48243713 C10.88814337 289.47424507 15.00399145 292.50037117 19.09228516 295.56959534 C19.95635986 296.21573792 20.82043457 296.86188049 21.71069336 297.52760315 C23.38571069 298.7825449 25.05629694 300.04342751 26.72192383 301.31080627 C27.47707275 301.87573792 28.23222168 302.44066956 29.01025391 303.02272034 C29.67597412 303.52650208 30.34169434 304.03028381 31.02758789 304.54933167 C32.90584166 305.88533427 32.90584166 305.88533427 35.82666016 305.62818909 C37.59254899 304.65701092 37.59254899 304.65701092 39.38916016 303.27662659 C40.44586914 302.50512268 40.44586914 302.50512268 41.52392578 301.71803284 C42.28382813 301.1521344 43.04373047 300.58623596 43.82666016 300.00318909 C44.62265625 299.41924377 45.41865234 298.83529846 46.23876953 298.23365784 C48.77320307 296.37203007 51.30023149 294.50066141 53.82666016 292.62818909 C55.42000567 291.45316123 57.01374764 290.27867077 58.60791016 289.10475159 C60.96603077 287.36776594 63.32378937 285.63030875 65.67993164 283.89064026 C71.39657963 279.67156138 77.13370542 275.48167444 82.88916016 271.31568909 C84.04158203 270.47940979 84.04158203 270.47940979 85.21728516 269.62623596 C85.92498047 269.11512268 86.63267578 268.6040094 87.36181641 268.07740784 C88.29586304 267.40197937 88.29586304 267.40197937 89.2487793 266.71290588 C92.58288244 264.42087119 94.78099899 264.16663519 98.82666016 264.62818909 C101.60737732 266.04340965 104.02773939 267.87780571 106.51416016 269.75318909 C107.24965088 270.29016418 107.9851416 270.82713928 108.74291992 271.38038635 C111.11426561 273.11637623 113.4705066 274.87165257 115.82666016 276.62818909 C117.39342797 277.78181128 118.96113465 278.93415946 120.52978516 280.08522034 C123.71402587 282.42417192 126.89304969 284.76997644 130.06884766 287.12037659 C136.85237831 292.13260589 143.69920633 297.05672386 150.54443359 301.98414612 C155.27632911 305.39285219 160.00106047 308.81149386 164.72729492 312.2280426 C166.10270193 313.2217014 167.47872952 314.21450194 168.85546875 315.20631409 C170.19404453 316.1718659 171.53023181 317.14073589 172.86425781 318.11256409 C175.60043832 320.52371339 175.60043832 320.52371339 178.82666016 321.62818909 C178.82666016 237.47818909 178.82666016 153.32818909 178.82666016 66.62818909 C113.81666016 66.62818909 48.80666016 66.62818909 -18.17333984 66.62818909 Z M-109.17333984 164.62818909 C-109.17333984 216.43818909 -109.17333984 268.24818909 -109.17333984 321.62818909 C-103.54827896 317.8781485 -98.09101951 314.15290401 -92.73583984 310.06568909 C-86.97135835 305.70565736 -81.16314939 301.41483188 -75.29833984 297.19068909 C-74.55245605 296.65331116 -73.80657227 296.11593323 -73.03808594 295.56227112 C-69.97197631 293.35564618 -66.90373452 291.15201211 -63.83398438 288.95045471 C-63.06038574 288.39551331 -62.28678711 287.8405719 -61.48974609 287.26881409 C-60.72114258 286.71822327 -59.95253906 286.16763245 -59.16064453 285.60035706 C-57.63792806 284.5014795 -56.12151018 283.39381628 -54.61181641 282.27711487 C-50.67052598 279.36531819 -46.75999733 276.68700884 -42.43579102 274.37281799 C-37.1572465 270.85700893 -37.1572465 270.85700893 -34.74388123 265.31318665 C-34.64463882 262.61906085 -34.70390759 259.9808079 -34.83740234 257.28834534 C-34.86165283 256.35897156 -34.88590332 255.42959778 -34.91088867 254.47206116 C-34.9739653 252.18883403 -35.06212463 249.90949371 -35.17333984 247.62818909 C-35.79086121 247.61788162 -36.40838257 247.60757416 -37.0446167 247.59695435 C-43.46849002 247.48882163 -49.89222501 247.37422898 -56.31591797 247.25587463 C-58.713675 247.21254754 -61.11146244 247.17087087 -63.50927734 247.13087463 C-66.9546831 247.07311845 -70.39993609 247.00943903 -73.84521484 246.94459534 C-74.91825867 246.92788284 -75.99130249 246.91117035 -77.09686279 246.89395142 C-78.09759827 246.8740062 -79.09833374 246.85406097 -80.12939453 246.83351135 C-81.00875671 246.81796707 -81.8881189 246.80242279 -82.79412842 246.78640747 C-85.04291755 246.63686221 -87.01324483 246.25280737 -89.17333984 245.62818909 C-90.14262303 242.36665442 -90.31108891 239.40123464 -90.33447266 236.00514221 C-90.3440802 234.87717224 -90.35368774 233.74920227 -90.36358643 232.58705139 C-90.3678363 231.37343933 -90.37208618 230.15982727 -90.37646484 228.90943909 C-90.38216492 227.65941101 -90.38786499 226.40938293 -90.39373779 225.12147522 C-90.40318203 222.47865661 -90.4100824 219.83595142 -90.41357422 217.19313049 C-90.41906801 213.81027728 -90.44312478 210.42782471 -90.47154617 207.04509735 C-90.49466193 203.81240832 -90.49662055 200.57969921 -90.50146484 197.34693909 C-90.51381165 196.13332703 -90.52615845 194.91971497 -90.53887939 193.66932678 C-90.5358783 192.54135681 -90.5328772 191.41338684 -90.52978516 190.25123596 C-90.53343079 189.25958435 -90.53707642 188.26793274 -90.54083252 187.24623108 C-90.11038665 184.17970638 -89.31967586 182.83360579 -87.17333984 180.62818909 C-84.28193754 179.66438832 -82.34680062 179.47706884 -79.3347168 179.42286682 C-77.86353142 179.39294899 -77.86353142 179.39294899 -76.36262512 179.36242676 C-75.30629379 179.34571426 -74.24996246 179.32900177 -73.16162109 179.31178284 C-71.53657906 179.28061119 -71.53657906 179.28061119 -69.87870789 179.24880981 C-66.41448368 179.18337112 -62.95018304 179.12445555 -59.48583984 179.06568909 C-57.1388267 179.02249848 -54.79182131 178.97888402 -52.44482422 178.93482971 C-46.6877413 178.82769547 -40.93058142 178.72641182 -35.17333984 178.62818909 C-35.17333984 174.00818909 -35.17333984 169.38818909 -35.17333984 164.62818909 C-59.59333984 164.62818909 -84.01333984 164.62818909 -109.17333984 164.62818909 Z M-74.17333984 195.62818909 C-74.17333984 207.17818909 -74.17333984 218.72818909 -74.17333984 230.62818909 C-61.30333984 230.62818909 -48.43333984 230.62818909 -35.17333984 230.62818909 C-35.17333984 219.07818909 -35.17333984 207.52818909 -35.17333984 195.62818909 C-48.04333984 195.62818909 -60.91333984 195.62818909 -74.17333984 195.62818909 Z M195.82666016 195.62818909 C195.52247797 213.57838088 195.29349543 231.52790069 195.15310192 249.48011589 C195.08617014 257.81648471 194.99498957 266.15124899 194.84594727 274.48658752 C194.7160452 281.75497732 194.63242925 289.02220499 194.60350972 296.29172337 C194.58661147 300.13883166 194.54715069 303.98261673 194.45216942 307.82865524 C193.11885733 324.22031382 193.11885733 324.22031382 198.63809204 338.67756653 C201.7044805 341.38664226 205.06439839 343.02921511 208.82666016 344.62818909 C210.44710532 345.64434734 212.05464197 346.68187109 213.63916016 347.75318909 C214.69103516 348.37193909 215.74291016 348.99068909 216.82666016 349.62818909 C217.05353516 349.00943909 217.28041016 348.39068909 217.51416016 347.75318909 C219.2545633 344.93539353 220.70434897 344.63021157 223.82666016 343.62818909 C226.40637207 343.3742218 226.40637207 343.3742218 229.18017578 343.36940002 C230.22475952 343.3630957 231.26934326 343.35679138 232.34558105 343.35029602 C233.46339966 343.35434448 234.58121826 343.35839294 235.73291016 343.36256409 C237.46909607 343.35969391 237.46909607 343.35969391 239.24035645 343.35676575 C241.68465391 343.35540629 244.12895865 343.35908598 246.57324219 343.3674469 C250.31282787 343.3781495 254.05193315 343.36754317 257.79150391 343.35475159 C260.16780705 343.35607322 262.54410989 343.3586357 264.92041016 343.36256409 C266.03822876 343.35851562 267.15604736 343.35446716 268.30773926 343.35029602 C269.87461487 343.3597525 269.87461487 343.3597525 271.47314453 343.36940002 C272.38849976 343.37099121 273.30385498 343.3725824 274.24694824 343.3742218 C277.1416141 343.65919565 279.23854719 344.30461407 281.82666016 345.62818909 C284.08580827 349.01691125 284.07527169 350.16812323 284.06958008 354.13771057 C284.07419502 355.82977882 284.07419502 355.82977882 284.0789032 357.55603027 C284.06812492 359.38419029 284.06812492 359.38419029 284.05712891 361.24928284 C284.05667068 362.50072586 284.05621246 363.75216888 284.05574036 365.04153442 C284.05271673 367.69042999 284.04589824 370.33897849 284.0324707 372.98780823 C284.01549844 376.37839886 284.011656 379.76884052 284.01241589 383.15946865 C284.01207805 386.39775472 284.003235 389.63600971 283.99462891 392.87428284 C283.99351608 394.09103195 283.99240326 395.30778107 283.99125671 396.56140137 C283.98487686 397.69259903 283.97849701 398.82379669 283.97192383 399.98927307 C283.96811203 400.98394089 283.96430023 401.9786087 283.96037292 403.00341797 C283.84000411 405.36624839 283.49989136 407.36877469 282.82666016 409.62818909 C279.56512549 410.59747227 276.59970571 410.76593815 273.20361328 410.7893219 C272.07564331 410.79892944 270.94767334 410.80853699 269.78552246 410.81843567 C268.5719104 410.82268555 267.35829834 410.82693542 266.10791016 410.83131409 C264.85788208 410.83701416 263.607854 410.84271423 262.31994629 410.84858704 C259.67712768 410.85803127 257.03442249 410.86493164 254.39160156 410.86842346 C251.00874835 410.87391725 247.62629578 410.89797403 244.24356842 410.92639542 C241.01087939 410.94951117 237.77817028 410.95146979 234.54541016 410.95631409 C233.3317981 410.96866089 232.11818604 410.98100769 230.86779785 410.99372864 C229.73982788 410.99072754 228.61185791 410.98772644 227.44970703 410.9846344 C225.96222961 410.99010284 225.96222961 410.99010284 224.44470215 410.99568176 C221.39491917 410.56758591 220.04003536 409.73581362 217.82666016 407.62818909 C216.99853516 405.36647034 216.99853516 405.36647034 216.57666016 402.94068909 C216.42712891 402.1324469 216.27759766 401.32420471 216.12353516 400.49147034 C216.02556641 399.87658752 215.92759766 399.26170471 215.82666016 398.62818909 C214.90046875 398.53344299 214.90046875 398.53344299 213.95556641 398.43678284 C207.41179365 397.49057521 203.53803415 395.39193822 198.54150391 391.08912659 C197.07525526 389.52010514 197.07525526 389.52010514 195.82666016 389.62818909 C195.82666016 418.00818909 195.82666016 446.38818909 195.82666016 475.62818909 C232.12666016 475.62818909 268.42666016 475.62818909 305.82666016 475.62818909 C305.82666016 401.70818909 305.82666016 327.78818909 305.82666016 251.62818909 C291.46975533 244.05181803 291.46975533 244.05181803 277.05712891 236.58522034 C275.85394264 235.96804138 275.85394264 235.96804138 274.62644958 235.33839417 C272.08967367 234.03787795 269.55199369 232.73914007 267.01416016 231.44068909 C266.13290466 230.98930573 265.25164917 230.53792236 264.34368896 230.07286072 C252.13513308 223.8208067 239.89711682 217.63218931 227.61425781 211.52748108 C219.05893892 207.27472542 210.56127615 202.93061521 202.13964844 198.41847229 C199.13452132 196.4949051 199.13452132 196.4949051 195.82666016 195.62818909 Z M-27.17333984 282.62818909 C-27.65464355 282.98421204 -28.13594727 283.34023499 -28.63183594 283.70704651 C-37.44762975 290.2245635 -46.27501345 296.72365486 -55.17333984 303.12818909 C-61.36989676 307.58837806 -67.53317902 312.09068035 -73.67333984 316.62818909 C-80.55037544 321.71023986 -87.46367068 326.73821706 -94.40380859 331.73365784 C-100.65126583 336.2366244 -106.85062694 340.80279123 -113.04370117 345.38014221 C-119.34184568 350.02956119 -125.67800637 354.62435894 -132.03662109 359.19068909 C-136.79371326 362.61151941 -141.49857213 366.09569002 -146.17333984 369.62818909 C-145.38341469 373.87744166 -143.32680548 375.71729773 -140.17333984 378.62818909 C-139.44373047 378.0571344 -138.71412109 377.48607971 -137.96240234 376.89772034 C-130.83492429 371.35128037 -123.58730525 365.99696554 -116.25195312 360.72901917 C-110.69523699 356.73596411 -105.17538589 352.69619422 -99.67333984 348.62818909 C-89.81959898 341.34831416 -79.88758954 334.17988083 -69.94384766 327.0236969 C-51.25305057 313.89516262 -51.25305057 313.89516262 -33.16943359 299.97511292 C-30.00783803 297.84173195 -26.79955364 297.98494089 -23.17333984 298.62818909 C-20.73126169 299.9442969 -18.9191455 301.11184341 -16.79833984 302.81568909 C-15.5761432 303.74207702 -14.35346281 304.66782697 -13.13037109 305.59303284 C-12.48922363 306.0878717 -11.84807617 306.58271057 -11.1875 307.09254456 C-7.67844805 309.76793083 -4.07413627 312.31072129 -0.48583984 314.87818909 C6.61893109 320.00233255 13.67500951 325.19081713 20.7199707 330.39674377 C26.06435491 334.34178559 31.43534527 338.2475754 36.82666016 342.12818909 C43.02320654 346.58840023 49.18630131 351.09094414 55.32666016 355.62818909 C61.76638683 360.38315769 68.2201519 365.11778999 74.70166016 369.81568909 C75.44480469 370.35645081 76.18794922 370.89721252 76.95361328 371.45436096 C80.49467045 374.01451587 84.02589515 376.45951729 87.82666016 378.62818909 C88.66571581 377.50745047 89.49773846 376.38144361 90.32666016 375.25318909 C90.79072266 374.62670471 91.25478516 374.00022034 91.73291016 373.35475159 C93.00504116 371.68724295 93.00504116 371.68724295 92.82666016 369.62818909 C91.42962993 368.34362473 91.42962993 368.34362473 89.55712891 367.08131409 C88.48591797 366.31947815 88.48591797 366.31947815 87.39306641 365.54225159 C86.60802734 364.99311096 85.82298828 364.44397034 85.01416016 363.87818909 C83.35073192 362.69683719 81.68799312 361.51451404 80.02587891 360.33131409 C79.16397949 359.71965393 78.30208008 359.10799377 77.4140625 358.47779846 C73.35119009 355.57344657 69.33940675 352.60121084 65.32666016 349.62818909 C59.18711633 345.08985635 53.02319159 340.58838947 46.82666016 336.12818909 C39.82450774 331.0881109 32.87052759 325.98605524 25.93212891 320.85865784 C19.85770412 316.37491712 13.74512278 311.94662609 7.6159668 307.5381012 C1.18712579 302.90693501 -5.18908867 298.20604983 -11.54248047 293.47193909 C-16.64622973 289.68773937 -21.85560817 286.10507695 -27.17333984 282.62818909 Z M86.70166016 288.81568909 C85.27057101 289.91881338 83.8382309 291.02031629 82.40478516 292.12037659 C81.65777344 292.69626526 80.91076172 293.27215393 80.14111328 293.86549377 C76.29553095 296.79430226 72.37594402 299.61866731 68.45166016 302.44068909 C67.69498047 302.98580139 66.93830078 303.5309137 66.15869141 304.09254456 C60.7466764 307.9839165 55.31079064 311.83890295 49.82666016 315.62818909 C51.36861605 318.92360809 52.5814646 320.81469745 55.82666016 322.62818909 C59.87907156 322.25732108 62.78664753 319.72053348 65.95166016 317.37818909 C66.55059082 316.94651428 67.14952148 316.51483948 67.76660156 316.07008362 C71.37767303 313.46030137 74.93309609 310.78636503 78.46728516 308.07350159 C79.25345215 307.4808551 80.03961914 306.88820862 80.84960938 306.27760315 C82.38949912 305.11589268 83.91779808 303.93861723 85.43261719 302.74440002 C89.45468823 299.73079149 92.68530911 297.64318599 97.83447266 298.07691956 C101.86909872 299.19336388 104.89439868 301.69582771 108.13916016 304.25318909 C108.91259766 304.8371344 109.68603516 305.42107971 110.48291016 306.02272034 C112.11681477 307.25669983 113.74515254 308.49808104 115.36816406 309.74635315 C119.31171078 312.76490907 123.32244698 315.69091375 127.32666016 318.62818909 C128.92054176 319.80509421 130.51429189 320.98217741 132.10791016 322.15943909 C136.65900955 325.51288074 141.23851519 328.82568894 145.82666016 332.12818909 C152.0232043 336.58839862 158.18642039 341.09078544 164.32666016 345.62818909 C172.67987437 351.7991165 181.08499642 357.89486061 189.51367188 363.96217346 C193.66276972 366.95071512 197.8068582 369.94619395 201.95166016 372.94068909 C203.47507715 374.0409779 204.99851266 375.14124108 206.52197266 376.24147034 C207.62353516 377.03704325 208.72509766 377.83261617 209.82666016 378.62818909 C212.90755688 375.85538203 214.51441468 373.56492553 215.82666016 369.62818909 C214.81990234 368.92436096 213.81314453 368.22053284 212.77587891 367.49537659 C204.09765167 361.40922493 195.50687845 355.21943002 186.98754883 348.91285706 C181.62711648 344.94703968 176.23918253 341.02257217 170.82666016 337.12818909 C163.82440674 332.088253 156.87052567 326.98605381 149.93212891 321.85865784 C144.58808232 317.91403425 139.21749754 314.00857598 133.82666016 310.12818909 C127.42456458 305.5187652 121.05186975 300.87136001 114.70166016 296.19068909 C113.93208984 295.62350159 113.16251953 295.05631409 112.36962891 294.47193909 C111.26167969 293.65402893 111.26167969 293.65402893 110.13134766 292.81959534 C109.4155957 292.29381897 108.69984375 291.7680426 107.96240234 291.22633362 C106.50361019 290.13474086 105.06203063 289.01986033 103.63623047 287.88551331 C102.93852539 287.33524475 102.24082031 286.7849762 101.52197266 286.21803284 C100.59795654 285.4715448 100.59795654 285.4715448 99.65527344 284.7099762 C94.36371968 281.57955234 90.71785872 285.63893784 86.70166016 288.81568909 Z M91.34228516 319.11256409 C90.65392578 319.63592346 89.96556641 320.15928284 89.25634766 320.69850159 C88.53705078 321.25279846 87.81775391 321.80709534 87.07666016 322.37818909 C82.4131452 325.94842582 77.7574907 329.43400327 72.82666016 332.62818909 C74.12234038 336.51522977 76.45343319 337.73584826 79.70166016 339.94068909 C80.96967657 340.82324062 82.23653827 341.70745275 83.50244141 342.59303284 C84.19160645 343.07369202 84.88077148 343.5543512 85.59082031 344.04957581 C89.73367811 346.97463788 93.80894692 349.99167816 97.88916016 353.00318909 C98.69788574 353.59784973 99.50661133 354.19251038 100.33984375 354.80519104 C112.51116705 363.78030091 112.51116705 363.78030091 113.26416016 368.19068909 C112.60359341 373.38085636 109.91545124 376.49090929 106.82666016 380.62818909 C106.3495459 381.2730426 105.87243164 381.91789612 105.38085938 382.58229065 C95.43730648 396.01754276 95.43730648 396.01754276 93.82666016 397.62818909 C87.21904983 398.58735833 84.22545844 397.6244275 78.82666016 393.62818909 C77.15999349 392.29485575 75.49332682 390.96152242 73.82666016 389.62818909 C73.49666016 389.62818909 73.16666016 389.62818909 72.82666016 389.62818909 C72.82666016 418.00818909 72.82666016 446.38818909 72.82666016 475.62818909 C107.80666016 475.62818909 142.78666016 475.62818909 178.82666016 475.62818909 C179.21853516 459.58193909 179.61041016 443.53568909 180.01416016 427.00318909 C180.18713623 421.96214905 180.3601123 416.92110901 180.53833008 411.72731018 C180.60192667 407.15451079 180.60192667 407.15451079 180.64009094 402.58146667 C180.66901739 400.56543473 180.73534221 398.54970495 180.83259583 396.53581238 C181.604227 384.78509368 181.604227 384.78509368 177.0161171 374.38863373 C172.5529933 370.24216232 167.57760249 367.10268492 162.30323219 364.09350967 C158.27946725 361.71275696 154.57636154 358.91276793 150.82666016 356.12818909 C149.33856217 355.05321324 147.84914642 353.98005718 146.35791016 352.90943909 C140.86059124 348.9391532 135.4095151 344.90675198 129.95629883 340.87623596 C123.65815432 336.22681698 117.32199363 331.63201923 110.96337891 327.06568909 C110.27501953 326.57068909 109.58666016 326.07568909 108.87744141 325.56568909 C108.21180176 325.0874469 107.54616211 324.60920471 106.86035156 324.11647034 C104.0252135 322.04168023 101.24944383 319.89093388 98.47973633 317.72975159 C95.37418494 315.6603013 94.01753428 317.05862736 91.34228516 319.11256409 Z M-34.54833984 321.75318909 C-35.30638916 322.29016418 -36.06443848 322.82713928 -36.84545898 323.38038635 C-43.28855 327.96206673 -49.6582442 332.64001299 -56.01269531 337.34352112 C-61.37288672 341.30956252 -66.76100305 345.2336572 -72.17333984 349.12818909 C-78.55094201 353.72155596 -84.90480483 358.34581872 -91.23583984 363.00318909 C-91.99703125 363.56199768 -92.75822266 364.12080627 -93.54248047 364.69654846 C-94.98243871 365.75790243 -96.40841072 366.83862095 -97.81643677 367.94198608 C-100.17333984 369.62818909 -100.17333984 369.62818909 -102.54110718 370.69525146 C-105.65607689 372.34018257 -107.18154937 373.68687834 -109.17333984 376.62818909 C-110.91419088 383.8424691 -110.21595763 391.6112754 -110.05224609 398.96803284 C-110.0354502 401.17760626 -110.02264367 403.3872133 -110.01365662 405.59683228 C-109.97936999 411.39933073 -109.89102993 417.19978626 -109.7913208 423.0014801 C-109.69908493 428.92689885 -109.65811274 434.85264928 -109.61279297 440.77857971 C-109.51640516 452.39615604 -109.35816011 464.01168271 -109.17333984 475.62818909 C-95.31333984 475.62818909 -81.45333984 475.62818909 -67.17333984 475.62818909 C-67.12435547 470.98240784 -67.07537109 466.33662659 -67.02490234 461.55006409 C-66.98951478 458.60603195 -66.95355415 455.66202918 -66.91552734 452.71803284 C-66.85523088 448.04571242 -66.7970519 443.37343309 -66.75146484 438.70094299 C-66.71457668 434.93366573 -66.66820733 431.16661333 -66.61527634 427.3995285 C-66.59675111 425.96267392 -66.58163621 424.52577116 -66.56999588 423.0888443 C-66.55310219 421.07549586 -66.52293302 419.06227208 -66.4921875 417.04908752 C-66.47886383 415.90325195 -66.46554016 414.75741638 -66.45181274 413.57685852 C-66.17995127 410.69819557 -65.76357432 409.0187009 -64.17333984 406.62818909 C-61.2943177 405.18867801 -58.80132153 405.48495956 -55.58398438 405.46705627 C-54.90736755 405.46209137 -54.23075073 405.45712646 -53.53363037 405.45201111 C-51.29112742 405.43738409 -49.0486952 405.4305866 -46.80615234 405.42506409 C-45.249176 405.41931303 -43.69219968 405.41355529 -42.13522339 405.40779114 C-38.86846588 405.39727959 -35.60173299 405.39143795 -32.33496094 405.38795471 C-28.14944518 405.38246991 -23.96425474 405.35844309 -19.77884102 405.32998276 C-16.56178843 405.31135678 -13.3448142 405.30615081 -10.12771225 405.30461884 C-8.58473812 405.30159162 -7.0417654 405.29356073 -5.49884415 405.28043365 C-3.33947269 405.26337353 -1.18089593 405.26525281 0.97851562 405.27174377 C2.20714325 405.26809814 3.43577087 405.26445251 4.70162964 405.26069641 C8.15241922 405.66649722 9.57111628 405.98322114 11.82666016 408.62818909 C12.34564209 411.53253174 12.34564209 411.53253174 12.37255859 415.11915588 C12.38806511 416.10004684 12.38806511 416.10004684 12.40388489 417.10075378 C12.43335762 419.25988848 12.43481286 421.41808763 12.43603516 423.57740784 C12.45101396 425.07529493 12.46774049 426.57316549 12.48614502 428.0710144 C12.52986524 432.01162974 12.54982768 435.9520223 12.56488037 439.89283752 C12.58787343 444.62202157 12.64030829 449.35095936 12.68782043 454.07994843 C12.75668343 461.2627597 12.78809196 468.44486339 12.82666016 475.62818909 C27.01666016 475.62818909 41.20666016 475.62818909 55.82666016 475.62818909 C56.3217749 458.35033789 56.3217749 458.35033789 56.65673828 441.07154846 C56.75808623 434.01422294 56.87747051 426.96067283 57.10913086 419.90626526 C57.29490717 414.21296412 57.39569366 408.52371141 57.43957329 402.82761192 C57.47080508 400.66345146 57.53180756 398.4994946 57.62407112 396.33707619 C58.38037596 384.82648106 58.38037596 384.82648106 54.21189499 374.48249435 C50.27464974 370.61059757 45.84305868 367.70849109 41.07549191 364.96099663 C37.37380239 362.76712877 33.93168068 360.21585928 30.45166016 357.69068909 C29.03716733 356.69986008 27.62203517 355.70994128 26.20556641 354.72193909 C21.54672003 351.44991699 16.96471064 348.07782728 12.38916016 344.69068909 C4.59796619 338.92335771 -3.23956344 333.22466684 -11.10693359 327.56178284 C-13.64891483 325.73148506 -16.18388421 323.89252688 -18.70849609 322.03834534 C-19.70751953 321.30486877 -20.70654297 320.57139221 -21.73583984 319.81568909 C-22.58275391 319.19049377 -23.42966797 318.56529846 -24.30224609 317.92115784 C-28.23202036 315.20559358 -31.18927464 319.36520517 -34.54833984 321.75318909 Z M232.82666016 359.62818909 C233.48666016 360.94818909 234.14666016 362.26818909 234.82666016 363.62818909 C236.30563276 369.77161374 236.30563276 369.77161374 234.35009766 373.26881409 C232.3572781 377.6632367 232.49265119 381.25526136 232.63916016 386.00318909 C232.70103516 388.84943909 232.76291016 391.69568909 232.82666016 394.62818909 C244.37666016 394.62818909 255.92666016 394.62818909 267.82666016 394.62818909 C267.82666016 383.07818909 267.82666016 371.52818909 267.82666016 359.62818909 C256.27666016 359.62818909 244.72666016 359.62818909 232.82666016 359.62818909 Z M-50.17333984 421.62818909 C-50.17333984 439.44818909 -50.17333984 457.26818909 -50.17333984 475.62818909 C-34.99333984 475.62818909 -19.81333984 475.62818909 -4.17333984 475.62818909 C-4.17333984 457.80818909 -4.17333984 439.98818909 -4.17333984 421.62818909 C-19.35333984 421.62818909 -34.53333984 421.62818909 -50.17333984 421.62818909 Z " fill="#000000" transform="translate(167.17333984375,9.371810913085938)"/>
<path d="M0 0 C1.06460449 -0.00953201 2.12920898 -0.01906403 3.22607422 -0.02888489 C4.3657666 -0.02797348 5.50545898 -0.02706207 6.6796875 -0.02612305 C7.85934082 -0.03040817 9.03899414 -0.0346933 10.25439453 -0.03910828 C12.74576171 -0.04484519 15.23714563 -0.04535655 17.72851562 -0.04101562 C21.54065465 -0.03785344 25.35201925 -0.06133174 29.1640625 -0.08666992 C31.58593652 -0.08894273 34.00781263 -0.0896465 36.4296875 -0.08862305 C38.13922607 -0.10243767 38.13922607 -0.10243767 39.88330078 -0.11653137 C40.94790527 -0.11030258 42.01250977 -0.10407379 43.109375 -0.09765625 C44.04249512 -0.09828568 44.97561523 -0.0989151 45.93701172 -0.0995636 C49.11661345 0.35499089 50.96961506 1.39160296 53.5546875 3.2746582 C55.81088962 6.65896139 55.80712859 7.81917001 55.81347656 11.78417969 C55.81978088 12.91222519 55.82608521 14.04027069 55.83258057 15.20249939 C55.8285321 16.42127274 55.82448364 17.64004608 55.8203125 18.89575195 C55.82222595 20.14719498 55.8241394 21.398638 55.82611084 22.68800354 C55.82747302 25.33690163 55.8247765 27.98543175 55.81542969 30.63427734 C55.80404685 34.02494039 55.8105891 37.4152864 55.82257462 40.80593777 C55.83155284 44.04422042 55.82526005 47.28246515 55.8203125 50.52075195 C55.82436096 51.73750107 55.82840942 52.95425018 55.83258057 54.20787048 C55.82312408 55.90466698 55.82312408 55.90466698 55.81347656 57.63574219 C55.81188538 58.63041 55.81029419 59.62507782 55.80865479 60.64988708 C55.54043673 63.42194097 55.14219813 64.99397125 53.5546875 67.2746582 C50.42847973 69.44478085 47.68996587 69.5363266 43.94750977 69.56518555 C42.82276749 69.57794525 41.69802521 69.59070496 40.53919983 69.60385132 C39.32872482 69.60607697 38.11824982 69.60830261 36.87109375 69.6105957 C34.99960915 69.6205809 34.99960915 69.6205809 33.09031677 69.63076782 C30.45158618 69.64089366 27.81326765 69.64645008 25.17456055 69.64526367 C21.80060243 69.6450604 18.42748583 69.67237576 15.05372715 69.70680809 C11.82621441 69.73444732 8.59870878 69.73322673 5.37109375 69.7355957 C4.16264297 69.74996674 2.9541922 69.76433777 1.7091217 69.77914429 C0.58122726 69.77299103 -0.54666718 69.76683777 -1.70874023 69.76049805 C-2.69817123 69.76334808 -3.68760223 69.76619812 -4.70701599 69.76913452 C-8.23218884 69.13256559 -9.90757022 67.75847924 -12.4453125 65.2746582 C-13.45867017 62.2345852 -13.58370095 60.14683164 -13.60644531 56.96459961 C-13.61605286 55.8798233 -13.6256604 54.795047 -13.63555908 53.67739868 C-13.63980896 52.50550995 -13.64405884 51.33362122 -13.6484375 50.1262207 C-13.65413757 48.92154144 -13.65983765 47.71686218 -13.66571045 46.47567749 C-13.67516255 43.92528157 -13.68169526 41.37487342 -13.68554688 38.82446289 C-13.69525634 34.92222823 -13.72628029 31.0205193 -13.7578125 27.1184082 C-13.76434215 24.64184883 -13.76959277 22.1652857 -13.7734375 19.6887207 C-13.7857843 18.52088043 -13.7981311 17.35304016 -13.81085205 16.14981079 C-13.80785095 15.05873016 -13.80484985 13.96764954 -13.80175781 12.84350586 C-13.80540344 11.88658844 -13.80904907 10.92967102 -13.81280518 9.9437561 C-13.36193889 6.66911601 -12.48698776 4.87142328 -10.4453125 2.2746582 C-6.9503691 0.3459004 -3.95076667 0.01950738 0 0 Z M3.5546875 17.2746582 C3.5546875 28.8246582 3.5546875 40.3746582 3.5546875 52.2746582 C15.1046875 52.2746582 26.6546875 52.2746582 38.5546875 52.2746582 C38.5546875 40.7246582 38.5546875 29.1746582 38.5546875 17.2746582 C27.0046875 17.2746582 15.4546875 17.2746582 3.5546875 17.2746582 Z " fill="#000000" transform="translate(396.4453125,269.725341796875)"/>
<path d="M0 0 C1.08477631 -0.00960754 2.16955261 -0.01921509 3.28720093 -0.02911377 C5.04503403 -0.03548859 5.04503403 -0.03548859 6.83837891 -0.04199219 C8.04305817 -0.04769226 9.24773743 -0.05339233 10.48892212 -0.05926514 C13.03931804 -0.06871724 15.58972619 -0.07524995 18.14013672 -0.07910156 C22.04237138 -0.08881103 25.94408031 -0.11983498 29.84619141 -0.15136719 C32.32275077 -0.15789684 34.79931391 -0.16314746 37.27587891 -0.16699219 C38.44371918 -0.17933899 39.61155945 -0.19168579 40.81478882 -0.20440674 C41.90586945 -0.20140564 42.99695007 -0.19840454 44.12109375 -0.1953125 C45.55646988 -0.20078094 45.55646988 -0.20078094 47.02084351 -0.20635986 C50.2109552 0.23286819 52.09560874 1.28346564 54.68994141 3.16113281 C56.00809613 5.79744226 55.83153352 7.78837655 55.85107422 10.74072266 C55.86068176 11.90888519 55.87028931 13.07704773 55.88018799 14.28060913 C55.88443787 15.54829132 55.88868774 16.81597351 55.89306641 18.12207031 C55.89876648 19.41932037 55.90446655 20.71657043 55.91033936 22.0531311 C55.92084816 24.80202629 55.92669153 27.55089224 55.93017578 30.29980469 C55.93565892 33.81947176 55.95968299 37.33875166 55.98814774 40.85829735 C56.01127036 44.21704778 56.01322356 47.57574439 56.01806641 50.93457031 C56.03041321 52.19820404 56.04276001 53.46183777 56.05548096 54.76376343 C56.05247986 55.93823029 56.04947876 57.11269714 56.04638672 58.32275391 C56.05185516 59.87257462 56.05185516 59.87257462 56.05743408 61.45370483 C55.6333661 64.57793993 54.88352935 65.924892 52.68994141 68.16113281 C49.6244778 69.18295402 47.49954455 69.29973141 44.28808594 69.32226562 C42.63089035 69.33667694 42.63089035 69.33667694 40.94021606 69.35137939 C39.74645355 69.35562927 38.55269104 69.35987915 37.32275391 69.36425781 C35.48244095 69.37280792 35.48244095 69.37280792 33.60494995 69.38153076 C31.00747542 69.39098325 28.40998888 69.39751573 25.8125 69.40136719 C21.83784091 69.41107687 17.86369793 69.44210059 13.88916016 69.47363281 C11.36702781 69.48016242 8.84489177 69.48541306 6.32275391 69.48925781 C5.13303986 69.50160461 3.94332581 69.51395142 2.71755981 69.52667236 C1.05090775 69.52217072 1.05090775 69.52217072 -0.64941406 69.51757812 C-1.62409637 69.52122375 -2.59877869 69.52486938 -3.60299683 69.52862549 C-6.81620008 69.09242242 -8.69992217 68.05514517 -11.31005859 66.16113281 C-12.62693569 63.52737862 -12.45891488 61.53106441 -12.48706055 58.58154297 C-12.5063134 56.82929916 -12.5063134 56.82929916 -12.5259552 55.04165649 C-12.53334213 53.7739743 -12.54072906 52.50629211 -12.54833984 51.20019531 C-12.55641159 49.90294525 -12.56448334 48.60569519 -12.57279968 47.26913452 C-12.58782506 44.52024465 -12.59766416 41.77138062 -12.60522461 39.02246094 C-12.61629279 35.5026784 -12.6506976 31.98352745 -12.69039631 28.46396828 C-12.72283538 25.10523557 -12.7273387 21.74657261 -12.73583984 18.38769531 C-12.76210197 16.49224472 -12.76210197 16.49224472 -12.78889465 14.5585022 C-12.78596909 13.38403534 -12.78304352 12.20956848 -12.7800293 10.99951172 C-12.78589554 9.96629791 -12.79176178 8.93308411 -12.79780579 7.86856079 C-12.18001056 4.43925128 -11.01631493 3.28989756 -8.31005859 1.16113281 C-5.26998559 0.14777515 -3.18223203 0.02274437 0 0 Z M4.68994141 17.16113281 C4.68994141 28.71113281 4.68994141 40.26113281 4.68994141 52.16113281 C15.90994141 52.16113281 27.12994141 52.16113281 38.68994141 52.16113281 C38.68994141 40.61113281 38.68994141 29.06113281 38.68994141 17.16113281 C27.46994141 17.16113281 16.24994141 17.16113281 4.68994141 17.16113281 Z " fill="#000000" transform="translate(184.31005859375,105.8388671875)"/>
<path d="M0 0 C1.06152786 -0.00960754 2.12305573 -0.01921509 3.2167511 -0.02911377 C4.363629 -0.03336365 5.5105069 -0.03761353 6.69213867 -0.04199219 C8.46230598 -0.0505423 8.46230598 -0.0505423 10.26823425 -0.05926514 C12.76735537 -0.06871755 15.26648897 -0.07525007 17.765625 -0.07910156 C21.58445044 -0.08880201 25.40273658 -0.11982195 29.22143555 -0.15136719 C31.64916673 -0.15789779 34.07690175 -0.16314804 36.50463867 -0.16699219 C37.64544388 -0.17933899 38.78624908 -0.19168579 39.96162415 -0.20440674 C50.02570141 -0.17620531 50.02570141 -0.17620531 54.79760742 3.16113281 C56.11576214 5.79744226 55.93919953 7.78837655 55.95874023 10.74072266 C55.96834778 11.90888519 55.97795532 13.07704773 55.987854 14.28060913 C55.99210388 15.54829132 55.99635376 16.81597351 56.00073242 18.12207031 C56.0064325 19.41932037 56.01213257 20.71657043 56.01800537 22.0531311 C56.02851417 24.80202629 56.03435755 27.55089224 56.0378418 30.29980469 C56.04332494 33.81947176 56.06734901 37.33875166 56.09581375 40.85829735 C56.11893637 44.21704778 56.12088958 47.57574439 56.12573242 50.93457031 C56.13807922 52.19820404 56.15042603 53.46183777 56.16314697 54.76376343 C56.16014587 55.93823029 56.15714478 57.11269714 56.15405273 58.32275391 C56.15952118 59.87257462 56.15952118 59.87257462 56.1651001 61.45370483 C55.74103212 64.57793993 54.99119536 65.924892 52.79760742 68.16113281 C49.73214381 69.18295402 47.60721057 69.29973141 44.39575195 69.32226562 C42.73855637 69.33667694 42.73855637 69.33667694 41.04788208 69.35137939 C39.85411957 69.35562927 38.66035706 69.35987915 37.43041992 69.36425781 C35.59010696 69.37280792 35.59010696 69.37280792 33.71261597 69.38153076 C31.11514143 69.39098325 28.51765489 69.39751573 25.92016602 69.40136719 C21.94550693 69.41107687 17.97136395 69.44210059 13.99682617 69.47363281 C11.47469383 69.48016242 8.95255779 69.48541306 6.43041992 69.48925781 C5.24070587 69.50160461 4.05099182 69.51395142 2.82522583 69.52667236 C1.15857376 69.52217072 1.15857376 69.52217072 -0.54174805 69.51757812 C-1.51643036 69.52122375 -2.49111267 69.52486938 -3.49533081 69.52862549 C-6.70853407 69.09242242 -8.59225616 68.05514517 -11.20239258 66.16113281 C-12.51926968 63.52737862 -12.35124887 61.53106441 -12.37939453 58.58154297 C-12.39864738 56.82929916 -12.39864738 56.82929916 -12.41828918 55.04165649 C-12.42567612 53.7739743 -12.43306305 52.50629211 -12.44067383 51.20019531 C-12.44874557 49.90294525 -12.45681732 48.60569519 -12.46513367 47.26913452 C-12.48015904 44.52024465 -12.48999815 41.77138062 -12.49755859 39.02246094 C-12.50862677 35.5026784 -12.54303159 31.98352745 -12.58273029 28.46396828 C-12.61516936 25.10523557 -12.61967268 21.74657261 -12.62817383 18.38769531 C-12.65443596 16.49224472 -12.65443596 16.49224472 -12.68122864 14.5585022 C-12.67830307 13.38403534 -12.6753775 12.20956848 -12.67236328 10.99951172 C-12.67822952 9.96629791 -12.68409576 8.93308411 -12.69013977 7.86856079 C-12.07234454 4.43925128 -10.90864892 3.28989756 -8.20239258 1.16113281 C-5.19204393 0.15768326 -3.14784034 0.02299885 0 0 Z M4.79760742 17.16113281 C4.79760742 28.71113281 4.79760742 40.26113281 4.79760742 52.16113281 C16.01760742 52.16113281 27.23760742 52.16113281 38.79760742 52.16113281 C38.79760742 40.61113281 38.79760742 29.06113281 38.79760742 17.16113281 C27.57760742 17.16113281 16.35760742 17.16113281 4.79760742 17.16113281 Z " fill="#000000" transform="translate(184.202392578125,187.8388671875)"/>
<path d="M0 0 C1.08477631 -0.00960754 2.16955261 -0.01921509 3.28720093 -0.02911377 C5.04503403 -0.03548859 5.04503403 -0.03548859 6.83837891 -0.04199219 C8.04305817 -0.04769226 9.24773743 -0.05339233 10.48892212 -0.05926514 C13.03931804 -0.06871724 15.58972619 -0.07524995 18.14013672 -0.07910156 C22.04237138 -0.08881103 25.94408031 -0.11983498 29.84619141 -0.15136719 C32.32275077 -0.15789684 34.79931391 -0.16314746 37.27587891 -0.16699219 C38.44371918 -0.17933899 39.61155945 -0.19168579 40.81478882 -0.20440674 C41.90586945 -0.20140564 42.99695007 -0.19840454 44.12109375 -0.1953125 C45.55646988 -0.20078094 45.55646988 -0.20078094 47.02084351 -0.20635986 C50.2109552 0.23286819 52.09560874 1.28346564 54.68994141 3.16113281 C56.02108902 5.82342803 55.83173164 7.86710609 55.85107422 10.84838867 C55.86068176 12.03979965 55.87028931 13.23121063 55.88018799 14.45872498 C55.88443787 15.751418 55.88868774 17.04411102 55.89306641 18.37597656 C55.89881773 19.71114606 55.90457547 21.04631554 55.91033936 22.38148499 C55.92084725 25.18165472 55.92669149 27.98179575 55.93017578 30.78198242 C55.93566442 34.37124654 55.95970064 37.96013204 55.98814774 41.54927731 C56.00676354 44.30734876 56.0119791 47.06532874 56.01351166 49.82345772 C56.01801393 51.79054778 56.03666418 53.7575889 56.05548096 55.72459412 C56.05247986 56.91915726 56.04947876 58.1137204 56.04638672 59.34448242 C56.05185516 60.92428139 56.05185516 60.92428139 56.05743408 62.53599548 C55.68994141 65.16113281 55.68994141 65.16113281 54.35516357 66.96217346 C51.10919207 69.29927176 48.13118442 69.29132682 44.2722168 69.30639648 C43.16419205 69.31277634 42.0561673 69.31915619 40.91456604 69.32572937 C39.71766647 69.32684219 38.52076691 69.32795502 37.28759766 69.32910156 C36.05835068 69.33242996 34.8291037 69.33575836 33.56260681 69.33918762 C30.96093114 69.34425405 28.35924896 69.34659604 25.75756836 69.34643555 C21.77205913 69.34631392 17.78673334 69.36678138 13.80126953 69.38574219 C11.27587986 69.38867611 8.75048886 69.39066091 6.22509766 69.39160156 C4.43278465 69.40237984 4.43278465 69.40237984 2.60426331 69.41337585 C1.4930864 69.41029922 0.38190948 69.4072226 -0.76293945 69.40405273 C-1.73984238 69.40547775 -2.7167453 69.40690277 -3.72325134 69.40837097 C-6.47893351 69.14499233 -8.04060145 68.73699596 -10.31005859 67.16113281 C-12.48018124 64.03492504 -12.57172699 61.29641119 -12.60058594 57.55395508 C-12.61334564 56.4292128 -12.62610535 55.30447052 -12.63925171 54.14564514 C-12.64147736 52.93517014 -12.643703 51.72469513 -12.64599609 50.47753906 C-12.65265289 49.22988266 -12.65930969 47.98222626 -12.66616821 46.69676208 C-12.67629406 44.05803149 -12.68185047 41.41971296 -12.68066406 38.78100586 C-12.68046079 35.40704774 -12.70777615 32.03393115 -12.74220848 28.66017246 C-12.76984771 25.43265972 -12.76862713 22.20515409 -12.77099609 18.97753906 C-12.78536713 17.76908829 -12.79973816 16.56063751 -12.81454468 15.31556702 C-12.80839142 14.18767258 -12.80223816 13.05977814 -12.79589844 11.89770508 C-12.79874847 10.90827408 -12.80159851 9.91884308 -12.80453491 8.89942932 C-12.16796598 5.37425647 -10.79387963 3.69887509 -8.31005859 1.16113281 C-5.26998559 0.14777515 -3.18223203 0.02274437 0 0 Z M4.68994141 17.16113281 C4.68994141 28.71113281 4.68994141 40.26113281 4.68994141 52.16113281 C16.23994141 52.16113281 27.78994141 52.16113281 39.68994141 52.16113281 C39.68994141 40.61113281 39.68994141 29.06113281 39.68994141 17.16113281 C28.13994141 17.16113281 16.58994141 17.16113281 4.68994141 17.16113281 Z " fill="#000000" transform="translate(266.31005859375,105.8388671875)"/>
<path d="M0 0 C1.06152786 -0.00960754 2.12305573 -0.01921509 3.2167511 -0.02911377 C4.363629 -0.03336365 5.5105069 -0.03761353 6.69213867 -0.04199219 C8.46230598 -0.0505423 8.46230598 -0.0505423 10.26823425 -0.05926514 C12.76735537 -0.06871755 15.26648897 -0.07525007 17.765625 -0.07910156 C21.58445044 -0.08880201 25.40273658 -0.11982195 29.22143555 -0.15136719 C31.64916673 -0.15789779 34.07690175 -0.16314804 36.50463867 -0.16699219 C37.64544388 -0.17933899 38.78624908 -0.19168579 39.96162415 -0.20440674 C50.02570141 -0.17620531 50.02570141 -0.17620531 54.79760742 3.16113281 C56.12875503 5.82342803 55.93939765 7.86710609 55.95874023 10.84838867 C55.96834778 12.03979965 55.97795532 13.23121063 55.987854 14.45872498 C55.99210388 15.751418 55.99635376 17.04411102 56.00073242 18.37597656 C56.00648375 19.71114606 56.01224148 21.04631554 56.01800537 22.38148499 C56.02851326 25.18165472 56.0343575 27.98179575 56.0378418 30.78198242 C56.04333043 34.37124654 56.06736665 37.96013204 56.09581375 41.54927731 C56.11442956 44.30734876 56.11964511 47.06532874 56.12117767 49.82345772 C56.12567994 51.79054778 56.1443302 53.7575889 56.16314697 55.72459412 C56.16014587 56.91915726 56.15714478 58.1137204 56.15405273 59.34448242 C56.15952118 60.92428139 56.15952118 60.92428139 56.1651001 62.53599548 C55.79760742 65.16113281 55.79760742 65.16113281 54.46282959 66.96217346 C51.21685808 69.29927176 48.23885043 69.29132682 44.37988281 69.30639648 C43.27185806 69.31277634 42.16383331 69.31915619 41.02223206 69.32572937 C39.82533249 69.32684219 38.62843292 69.32795502 37.39526367 69.32910156 C36.16601669 69.33242996 34.93676971 69.33575836 33.67027283 69.33918762 C31.06859715 69.34425405 28.46691498 69.34659604 25.86523438 69.34643555 C21.87972515 69.34631392 17.89439936 69.36678138 13.90893555 69.38574219 C11.38354587 69.38867611 8.85815488 69.39066091 6.33276367 69.39160156 C4.54045067 69.40237984 4.54045067 69.40237984 2.71192932 69.41337585 C1.60075241 69.41029922 0.4895755 69.4072226 -0.65527344 69.40405273 C-1.63217636 69.40547775 -2.60907928 69.40690277 -3.61558533 69.40837097 C-6.37126749 69.14499233 -7.93293544 68.73699596 -10.20239258 67.16113281 C-12.37251523 64.03492504 -12.46406098 61.29641119 -12.49291992 57.55395508 C-12.50567963 56.4292128 -12.51843933 55.30447052 -12.53158569 54.14564514 C-12.53381134 52.93517014 -12.53603699 51.72469513 -12.53833008 50.47753906 C-12.54498688 49.22988266 -12.55164368 47.98222626 -12.5585022 46.69676208 C-12.56862804 44.05803149 -12.57418445 41.41971296 -12.57299805 38.78100586 C-12.57279477 35.40704774 -12.60011014 32.03393115 -12.63454247 28.66017246 C-12.6621817 25.43265972 -12.66096111 22.20515409 -12.66333008 18.97753906 C-12.67770111 17.76908829 -12.69207214 16.56063751 -12.70687866 15.31556702 C-12.7007254 14.18767258 -12.69457214 13.05977814 -12.68823242 11.89770508 C-12.69108246 10.90827408 -12.6939325 9.91884308 -12.6968689 8.89942932 C-12.06029996 5.37425647 -10.68621361 3.69887509 -8.20239258 1.16113281 C-5.19204393 0.15768326 -3.14784034 0.02299885 0 0 Z M4.79760742 17.16113281 C4.79760742 28.71113281 4.79760742 40.26113281 4.79760742 52.16113281 C16.34760742 52.16113281 27.89760742 52.16113281 39.79760742 52.16113281 C39.79760742 40.61113281 39.79760742 29.06113281 39.79760742 17.16113281 C28.24760742 17.16113281 16.69760742 17.16113281 4.79760742 17.16113281 Z " fill="#000000" transform="translate(266.202392578125,187.8388671875)"/>
<path d="M0 0 C5.51442978 2.8173723 9.59200125 7.31967473 12.35546875 12.828125 C14.38379452 19.34162183 14.45733191 27.71538371 11.625 34 C7.85046512 40.20671756 2.10468395 44.42484481 -4.8125 46.5 C-12.16942054 47.40563915 -18.5810908 46.6856258 -24.8125 42.5 C-31.17128809 36.90822526 -34.38939682 30.94258335 -35.1875 22.5625 C-34.89526753 15.81458668 -32.69590324 9.25141937 -27.8125 4.5 C-19.31366041 -1.55585331 -10.1472291 -3.96458004 0 0 Z M-17.8125 20.5 C-17.88439646 24.09482284 -17.52466032 25.73697109 -15.0625 28.375 C-12.31522993 29.74863504 -10.84462094 30.03062116 -7.8125 29.5 C-5.37554526 27.97981752 -5.37554526 27.97981752 -3.8125 25.5 C-3.19456835 21.79241009 -3.31052751 20.2064798 -5.5 17.125 C-7.69463034 15.36621181 -7.69463034 15.36621181 -10.25 14.9375 C-14.04742622 15.77108137 -15.52959901 17.41136925 -17.8125 20.5 Z " fill="#000000" transform="translate(150.8125,342.5)"/>
</svg>
