<?xml version="1.0" encoding="UTF-8"?>
<svg version="1.1" xmlns="http://www.w3.org/2000/svg" width="512" height="512">
<path d="M0 0 C1.00039307 0.27287842 1.00039307 0.27287842 2.02099609 0.55126953 C13.18214347 3.66348581 24.33336835 8.5555789 34 15 C32.51194289 20.80342274 29.40902445 25.17590879 26 30 C25.50298584 29.75354736 25.00597168 29.50709473 24.49389648 29.25317383 C-7.22754562 13.62046774 -38.86120569 7.62513645 -73.1875 18.6875 C-90.36109168 24.56116167 -104.98624577 34.39938083 -118 47 C-118.81210938 47.78632812 -119.62421875 48.57265625 -120.4609375 49.3828125 C-141.14260365 70.71689714 -151.4199833 100.51639518 -151.234375 129.91210938 C-150.62306542 161.77662137 -137.18246382 190.69695954 -114.44140625 212.88671875 C-107.47973828 218.91273854 -99.88714103 224.26771538 -92 229 C-91.67 206.23 -91.34 183.46 -91 160 C-93.64 160 -96.28 160 -99 160 C-108.04980697 157.7055022 -114.00181664 153.09710548 -118.921875 145.2578125 C-122.58576641 137.58488048 -122.26198067 130.109658 -122.1953125 121.75390625 C-122.19157695 120.37385769 -122.18873254 118.99380645 -122.18673706 117.61375427 C-122.17914324 114.00192798 -122.15953194 110.39026551 -122.1373291 106.77850342 C-122.11677846 103.08478002 -122.10771573 99.39102986 -122.09765625 95.69726562 C-122.07628145 88.46476083 -122.04113467 81.23242435 -122 74 C-116.39 74 -110.78 74 -105 74 C-105 81.59 -105 89.18 -105 97 C-100.38 97 -95.76 97 -91 97 C-91 89.41 -91 81.82 -91 74 C-85.39 74 -79.78 74 -74 74 C-74 81.59 -74 89.18 -74 97 C-69.38 97 -64.76 97 -60 97 C-60 89.41 -60 81.82 -60 74 C-54.39 74 -48.78 74 -43 74 C-42.93191985 81.7806882 -42.87700976 89.56121029 -42.84456348 97.3421154 C-42.82898207 100.95605511 -42.80788373 104.56977849 -42.77368164 108.18359375 C-42.74081655 111.67845884 -42.72309058 115.17311732 -42.71536827 118.66812515 C-42.70721911 120.63435945 -42.68384418 122.60051194 -42.66011047 124.56661987 C-42.65825118 134.58145268 -43.63544085 144.54429532 -51 152 C-58.35795288 157.98870977 -64.41543986 160 -74 160 C-74 185.74 -74 211.48 -74 238 C-70.7 238.66 -67.4 239.32 -64 240 C-62.61039063 240.28101563 -61.22078125 240.56203125 -59.7890625 240.8515625 C-42.13430454 244.22698408 -25.55596181 243.55027799 -8 240 C-3.05 239.01 -3.05 239.01 2 238 C1.505 204.34 1.505 204.34 1 170 C-2.63 168.68 -6.26 167.36 -10 166 C-19.4650951 159.87980406 -25.05601392 151.08581429 -27.47436523 140.18408203 C-31.09953097 121.55236491 -29.20553668 100.42253053 -19.14453125 83.96484375 C-13.44372944 75.77200865 -6.95715197 68.58627324 3 66 C14.42321117 64.51613382 22.86281007 66.65730353 32.05078125 73.53515625 C44.85195619 85.08743607 49.27566255 103.35586374 50.22265625 119.88671875 C50.66651658 134.13515361 47.95890896 146.6360002 40.25 158.75 C33.76279472 165.23720528 28.00142171 167.29957349 19 170 C19.33 189.47 19.66 208.94 20 229 C50.08357376 208.94428416 69.81405691 184.86872335 77.44140625 148.9296875 C83.06126083 119.4549257 76.3233835 88.95306699 60.02734375 63.9765625 C53.42864126 54.60981583 45.84614875 46.27939216 37 39 C37.58172725 35.0479482 39.55157741 32.77904947 42.0625 29.75 C42.79597656 28.85796875 43.52945312 27.9659375 44.28515625 27.046875 C44.85105469 26.37140625 45.41695313 25.6959375 46 25 C51.06627924 26.48952405 54.01954766 29.51924879 57.625 33.1875 C58.23746582 33.80753906 58.84993164 34.42757812 59.48095703 35.06640625 C76.24582183 52.42830419 87.80236868 73.74483671 93.4375 97.1875 C93.6015332 97.86981689 93.76556641 98.55213379 93.93457031 99.25512695 C94.92456371 103.73501321 95 107.27026192 95 112 C120.41 112 145.82 112 172 112 C175.37641215 122.12923644 175.37641215 122.12923644 176.49967957 126.44953918 C176.75622818 127.43114517 177.01277679 128.41275116 177.27709961 129.42410278 C177.54683594 130.46984467 177.81657227 131.51558655 178.09448242 132.59301758 C178.38752762 133.71978409 178.68057281 134.8465506 178.98249817 136.00746155 C181.68021652 146.40568563 184.33735866 156.8145006 186.980937 167.22661304 C188.92515334 174.88187881 190.89059538 182.53098912 192.8852703 190.17326623 C194.2975266 195.59211016 195.68319943 201.01737376 197.05102235 206.44760054 C197.86270815 209.66694402 198.68796349 212.88100705 199.5358181 216.09113503 C205.50604219 238.75524866 210.31618207 264.4443253 199.125 286.3125 C198.65320313 287.25738281 198.18140625 288.20226562 197.6953125 289.17578125 C196 292 196 292 193.43525696 294.59463501 C190.12130119 298.54945401 190.29041243 302.32372973 190.34057617 307.31005859 C190.33009247 308.22777039 190.31960876 309.14548218 190.30880737 310.09100342 C190.28011147 313.11049434 190.28634259 316.12883494 190.29296875 319.1484375 C190.27985044 321.2473799 190.26454581 323.34630967 190.24714661 325.44522095 C190.20729962 330.95915386 190.1971063 336.4727565 190.19311523 341.98681641 C190.18378332 347.61761492 190.14636933 353.24821942 190.11132812 358.87890625 C190.04675518 369.91926177 190.01351262 380.95947216 190 392 C184.39 392 178.78 392 173 392 C173 376.49 173 360.98 173 345 C127.13 345 81.26 345 34 345 C34 373.05 34 401.1 34 430 C79.87 430 125.74 430 173 430 C173 422.41 173 414.82 173 407 C178.61 407 184.22 407 190 407 C190 435.05 190 463.1 190 492 C197.59 492 205.18 492 213 492 C213 497.28 213 502.56 213 508 C48.66 508 -115.68 508 -285 508 C-285 502.72 -285 497.44 -285 492 C-277.41 492 -269.82 492 -262 492 C-261.96854345 466.86086234 -261.97406831 441.72203975 -262.02846622 416.58293247 C-262.05279611 404.91010622 -262.06411091 393.23753947 -262.04467773 381.56469727 C-262.02777083 371.38939116 -262.03539449 361.21444805 -262.07234758 351.03918976 C-262.09105712 345.65244751 -262.09756888 340.26631905 -262.07469368 334.87957954 C-262.0535359 329.80592916 -262.06525778 324.73340154 -262.10184479 319.65984917 C-262.10951776 317.80113611 -262.10533322 315.942329 -262.08818626 314.0836792 C-261.72994754 302.62946654 -261.72994754 302.62946654 -266.44871521 292.510849 C-267.61758633 291.32569327 -268.79918037 290.15277319 -270 289 C-271.70703125 285.99609375 -271.70703125 285.99609375 -272.8125 283.4375 C-273.19019531 282.59058594 -273.56789063 281.74367188 -273.95703125 280.87109375 C-282.09564616 258.46704146 -276.44662158 233.30930889 -270.53826904 211.11125803 C-269.61505692 207.61073042 -268.7339689 204.09958357 -267.84765625 200.58956909 C-266.17620133 193.99563276 -264.46910946 187.41152171 -262.74775696 180.83045661 C-260.41446345 171.90091605 -258.13903811 162.95664358 -255.85968018 154.01321602 C-252.28579021 139.99662857 -248.63716616 126.00065412 -245 112 C-219.26 112 -193.52 112 -167 112 C-167 109.69 -167 107.38 -167 105 C-166.53438292 102.28298738 -166.02138643 99.67111055 -165.375 97 C-165.19606201 96.25943359 -165.01712402 95.51886719 -164.83276367 94.75585938 C-156.16086439 60.49253061 -133.17438766 31.03058502 -103 13 C-72.25921718 -4.72587402 -34.25127574 -9.75059709 0 0 Z M0.25 86.5625 C-10.23296484 97.40694639 -12.35088551 111.93704507 -12.30493164 126.37841797 C-12.12287232 134.67300595 -10.74294848 142.66803117 -5 149 C1.62498668 153.65973877 7.9989971 155.21652676 16 154 C22.71798596 152.39444361 26.16882054 149.28765515 29.80859375 143.51171875 C35.69364435 131.10487438 34.2234777 115.08008058 30.26171875 102.27734375 C27.32751342 94.65567728 23.30754897 87.1845333 16 83 C9.73221608 80.85800006 5.11118458 82.22215663 0.25 86.5625 Z M-105 113 C-107.03390072 133.15099935 -107.03390072 133.15099935 -101 141 C-95.63865464 144.71954418 -88.76517029 144.4558989 -82.5 144.375 C-81.15228516 144.39240234 -81.15228516 144.39240234 -79.77734375 144.41015625 C-74.32918092 144.38636515 -68.61250957 144.20002387 -64 141 C-57.96609928 133.15099935 -57.96609928 133.15099935 -60 113 C-74.85 113 -89.7 113 -105 113 Z M-232 129 C-236.62548072 147.38562056 -236.62548072 147.38562056 -241.2421875 165.7734375 C-243.12260927 173.27119363 -245.00406594 180.76867957 -246.89160156 188.26464844 C-248.41293594 194.30659294 -249.92969803 200.34966822 -251.44326782 206.39356232 C-252.02215141 208.70169373 -252.6026943 211.00940963 -253.18490601 213.3167038 C-253.99873276 216.5430665 -254.80670055 219.77084284 -255.61328125 222.99902344 C-255.97796005 224.43616699 -255.97796005 224.43616699 -256.3500061 225.90234375 C-256.56877411 226.78291443 -256.78754211 227.66348511 -257.01293945 228.57073975 C-257.20467239 229.33398434 -257.39640533 230.09722893 -257.59394836 230.88360214 C-258.12561545 233.2955589 -258.12561545 233.2955589 -258 237 C-248.10810624 237.02312428 -238.21621886 237.04091552 -228.32430363 237.05181217 C-223.7315736 237.05704082 -219.138862 237.06413812 -214.54614258 237.07543945 C-210.11766312 237.086269 -205.68920144 237.09227698 -201.26070976 237.09487724 C-199.56734372 237.09673137 -197.87397871 237.10035175 -196.18062019 237.10573006 C-193.81708768 237.1129414 -191.45362955 237.1139909 -189.09008789 237.11352539 C-188.38302704 237.11712067 -187.67596619 237.12071594 -186.94747925 237.12442017 C-183.69361952 237.39649445 -183.69361952 237.39649445 -181 236 C-180.57462399 232.9750382 -180.20801069 229.96130134 -179.87670898 226.92553711 C-179.76927368 225.97263794 -179.66183838 225.01973877 -179.55114746 224.03796387 C-179.1950242 220.86823614 -178.84537507 217.69783219 -178.49609375 214.52734375 C-178.25115761 212.32830486 -178.00596074 210.12929499 -177.76051331 207.93031311 C-177.24576538 203.30940453 -176.7342105 198.68815622 -176.22485352 194.06665039 C-175.57288036 188.15349507 -174.91308246 182.24124477 -174.25085354 176.32923031 C-173.7423716 171.7818745 -173.23809348 167.23405995 -172.73506355 162.6860981 C-172.49354925 160.50714362 -172.25073695 158.3283326 -172.00658989 156.14967155 C-171.66476267 153.09364263 -171.32860943 150.03703982 -170.99389648 146.98022461 C-170.84196587 145.63713982 -170.84196587 145.63713982 -170.68696594 144.266922 C-170.59585541 143.42436859 -170.50474487 142.58181519 -170.41087341 141.71372986 C-170.33105445 140.99234298 -170.25123549 140.2709561 -170.16899776 139.52770901 C-169.93486944 136.02583851 -170 132.50968845 -170 129 C-190.46 129 -210.92 129 -232 129 Z M98 129 C97.91067924 135.20265616 98.20880064 141.19555255 98.90209961 147.35595703 C98.99802902 148.24335571 99.09395844 149.13075439 99.1927948 150.04504395 C99.50799888 152.94982826 99.83006856 155.85380493 100.15234375 158.7578125 C100.37454018 160.79080015 100.59634064 162.82383111 100.81776428 164.85690308 C101.28143248 169.10528634 101.74820814 173.35331177 102.2175293 177.60107422 C102.81793929 183.03542125 103.41314809 188.4703208 104.00635433 193.90545845 C104.57417103 199.10642744 105.14432965 204.3071388 105.71484375 209.5078125 C105.8769399 210.98743658 105.8769399 210.98743658 106.04231071 212.49695206 C106.34977089 215.2990539 106.6588639 218.10097054 106.96850586 220.90283203 C107.10337402 222.13427444 107.10337402 222.13427444 107.2409668 223.39059448 C107.326483 224.16131287 107.41199921 224.93203125 107.50010681 225.72610474 C107.57292846 226.38640245 107.6457501 227.04670017 107.72077847 227.72700691 C108.10122244 230.82399774 108.55872707 233.91108951 109 237 C134.41 237 159.82 237 186 237 C184.70618325 229.88400786 183.34590139 222.94585602 181.58569336 215.95458984 C181.35292191 215.01824707 181.12015045 214.0819043 180.88032532 213.1171875 C180.12034751 210.06421478 179.35529348 207.01254247 178.58984375 203.9609375 C178.05680576 201.8267625 177.52397727 199.69253516 176.99134827 197.55825806 C175.87990604 193.10808602 174.76593562 188.65855672 173.65014648 184.20947266 C172.21725724 178.49510667 170.79077543 172.7791635 169.36614132 167.0627346 C168.26978932 162.66652012 167.17009628 158.27114683 166.06936836 153.87602615 C165.54162416 151.76705482 165.01493404 149.65781944 164.48930168 147.54832077 C163.75790737 144.61517022 163.02203438 141.68318033 162.28491211 138.75146484 C162.06723175 137.87467072 161.84955139 136.99787659 161.62527466 136.09451294 C160.93246852 132.23613743 160.93246852 132.23613743 159 129 C157.09756238 128.90608704 155.19161541 128.88256342 153.28686523 128.88647461 C151.45507973 128.88658791 151.45507973 128.88658791 149.58628845 128.88670349 C148.24372314 128.89181089 146.90115825 128.89702689 145.55859375 128.90234375 C144.19238842 128.90420801 142.82618243 128.90563187 141.4599762 128.90663147 C137.85798305 128.91045606 134.25603 128.92028583 130.65405273 128.93133545 C126.98096255 128.94155084 123.30786591 128.94612936 119.63476562 128.95117188 C112.42315877 128.96190816 105.211585 128.97898386 98 129 Z M-159 179 C-159.85757564 186.61684349 -160.711723 194.23406578 -161.56347656 201.8515625 C-161.85370023 204.44344818 -162.14471155 207.03524578 -162.43652344 209.62695312 C-162.85558362 213.35003203 -163.27181963 217.07341742 -163.6875 220.796875 C-163.81874268 221.95741394 -163.94998535 223.11795288 -164.08520508 224.31365967 C-164.20532959 225.39447815 -164.3254541 226.47529663 -164.44921875 227.58886719 C-164.60910278 229.01449982 -164.60910278 229.01449982 -164.7722168 230.46893311 C-165.05975513 233.24043394 -165.05975513 233.24043394 -165 237 C-153.12 237 -141.24 237 -129 237 C-129 242.28 -129 247.56 -129 253 C-141.54 253 -154.08 253 -167 253 C-167 268.63703609 -166.28794634 277.74144667 -155.73828125 288.734375 C-146.93152227 296.02099441 -136.44133271 299.95787902 -125 299 C-113.37985864 296.99828222 -103.84799513 291.69676111 -97 282 C-92.13253887 274.0198051 -90.69217818 266.30906538 -90.875 257.0625 C-90.88402344 256.18787109 -90.89304687 255.31324219 -90.90234375 254.41210938 C-90.9257043 252.27461936 -90.96156753 250.13727214 -91 248 C-92.08796875 247.45472656 -93.1759375 246.90945312 -94.296875 246.34765625 C-124.0617719 231.18139269 -143.81568086 208.87050736 -158 179 C-158.33 179 -158.66 179 -159 179 Z M85 181 C84.74420166 181.51272461 84.48840332 182.02544922 84.22485352 182.55371094 C74.20446036 202.49181556 61.95566693 218.68216644 44.65234375 232.8203125 C42.04039023 234.894708 42.04039023 234.894708 40 237 C57.49 237 74.98 237 93 237 C90.03 209.28 90.03 209.28 87 181 C86.34 181 85.68 181 85 181 Z M-261 253 C-261 267.86931425 -259.19055583 277.46358577 -248.96484375 288.12109375 C-241.07040006 295.70922746 -231.63093149 299.44218011 -220.66015625 299.27734375 C-207.78332498 297.93482536 -198.99109305 292.00879585 -190.76171875 282.4375 C-184.20649955 273.36775104 -184 264.04329079 -184 253 C-209.41 253 -234.82 253 -261 253 Z M19 253 C18.97283821 255.22519217 18.95353098 257.45048106 18.9375 259.67578125 C18.92589844 260.91497314 18.91429687 262.15416504 18.90234375 263.4309082 C19.19585147 274.15788155 24.32063331 282.50273726 31.94921875 289.88671875 C40.38426494 296.67924073 51.2218809 300.10951226 62 299 C70.79619651 297.19286062 77.49340152 294.20304521 84 288 C84.56332031 287.47664063 85.12664062 286.95328125 85.70703125 286.4140625 C92.55073758 279.31046859 95.43294435 270.51006619 95.375 260.8125 C95.62153702 256.58782072 95.62153702 256.58782072 94 253 C91.65746218 252.90507278 89.34453896 252.87440209 87.00170898 252.88647461 C86.27004517 252.88632858 85.53838135 252.88618256 84.7845459 252.8860321 C82.35503216 252.88673133 79.92559417 252.89452415 77.49609375 252.90234375 C75.81600486 252.9042079 74.13591543 252.90563181 72.45582581 252.90663147 C68.02526357 252.91045693 63.5947339 252.92028744 59.16418457 252.93133545 C54.64657024 252.94154897 50.12895066 252.94612896 45.61132812 252.95117188 C36.74087107 252.96190969 27.87043824 252.97898644 19 253 Z M111 253 C113.05713971 273.10629605 113.05713971 273.10629605 124 289 C132.42697629 295.41394241 141.75641134 299.79338427 152.55078125 299.34765625 C164.93219274 297.59016722 173.56281748 292.55243778 181.46484375 283.06640625 C188.45205336 273.66123097 189 264.70241827 189 253 C163.26 253 137.52 253 111 253 Z M-74 255 C-74.66466266 266.61313363 -73.14207975 276.05443015 -65.6171875 285.2265625 C-58.49811178 293.03347162 -49.59358222 298.15685608 -38.9296875 299.203125 C-27.71922778 299.45887693 -17.33526383 295.7424906 -8.99609375 288.18359375 C-1.74290377 280.42910338 2.16817197 271.81719721 2.0625 261.25 C2.05347656 260.07953125 2.04445313 258.9090625 2.03515625 257.703125 C2.02355469 256.81109375 2.01195312 255.9190625 2 255 C0.783125 255.28875 -0.43375 255.5775 -1.6875 255.875 C-25.65190226 261.11954598 -50.1602425 260.65689161 -74 255 Z M-176 290 C-177.29001901 291.43240991 -178.57679088 292.86789007 -179.84619141 294.31860352 C-188.70861469 304.3789088 -199.38709915 311.98398506 -213 314 C-224.1397213 314.7041001 -234.23980615 314.03817238 -245 311 C-245 316.61 -245 322.22 -245 328 C-107.06 328 30.88 328 173 328 C173 322.39 173 316.78 173 311 C170.3703125 311.7425 170.3703125 311.7425 167.6875 312.5 C150.83913792 316.34003018 134.74327354 314.49906905 119.640625 305.84375 C114.83887051 302.49104568 110.96273237 298.2805986 107 294 C105.67235245 292.66100503 104.34094784 291.32567509 103 290 C102.41605469 290.8353125 102.41605469 290.8353125 101.8203125 291.6875 C93.11088753 303.56763729 81.62310893 311.3557412 67 314 C50.35351458 315.59763938 36.68685517 312.93765062 23 303 C22.40445312 302.5771875 21.80890625 302.154375 21.1953125 301.71875 C16.97225413 298.48034255 14.02140487 294.31782327 11 290 C10.278125 290.70125 9.55625 291.4025 8.8125 292.125 C8.40644531 292.51945312 8.00039063 292.91390625 7.58203125 293.3203125 C5.81752605 295.14340533 5.81752605 295.14340533 3.73046875 297.890625 C-3.31556882 306.38881935 -15.27916578 312.28147986 -26 314 C-43.08145114 315.58670272 -57.76876449 312.85744125 -71.4765625 302.046875 C-75.7572202 298.39367527 -79.19199031 294.88349511 -82 290 C-82.721875 290.70125 -83.44375 291.4025 -84.1875 292.125 C-84.59355469 292.51945312 -84.99960938 292.91390625 -85.41796875 293.3203125 C-87.18247395 295.14340533 -87.18247395 295.14340533 -89.26953125 297.890625 C-96.31556882 306.38881935 -108.27916578 312.28147986 -119 314 C-136.08145114 315.58670272 -150.76876449 312.85744125 -164.4765625 302.046875 C-168.77927665 298.37485185 -172.09470196 294.84216341 -175 290 C-175.33 290 -175.66 290 -176 290 Z M-245 345 C-245 373.05 -245 401.1 -245 430 C-199.13 430 -153.26 430 -106 430 C-106 401.95 -106 373.9 -106 345 C-151.87 345 -197.74 345 -245 345 Z M-90 345 C-90 393.51 -90 442.02 -90 492 C-54.36 492 -18.72 492 18 492 C18 443.49 18 394.98 18 345 C-17.64 345 -53.28 345 -90 345 Z M-245 446 C-245 461.18 -245 476.36 -245 492 C-199.13 492 -153.26 492 -106 492 C-106 476.82 -106 461.64 -106 446 C-151.87 446 -197.74 446 -245 446 Z M34 446 C34 461.18 34 476.36 34 492 C79.87 492 125.74 492 173 492 C173 476.82 173 461.64 173 446 C127.13 446 81.26 446 34 446 Z " fill="#000000" transform="translate(292,4)"/>
<path d="M0 0 C5.61 0 11.22 0 17 0 C17 10.56 17 21.12 17 32 C11.39 32 5.78 32 0 32 C0 21.44 0 10.88 0 0 Z " fill="#000000" transform="translate(263,403)"/>
<path d="M0 0 C5.61 0 11.22 0 17 0 C17 10.56 17 21.12 17 32 C11.39 32 5.78 32 0 32 C0 21.44 0 10.88 0 0 Z " fill="#000000" transform="translate(232,403)"/>
<path d="M0 0 C5.61 0 11.22 0 17 0 C17 5.28 17 10.56 17 16 C11.39 16 5.78 16 0 16 C0 10.72 0 5.44 0 0 Z " fill="#000000" transform="translate(133,366)"/>
<path d="M0 0 C5.61 0 11.22 0 17 0 C17 5.28 17 10.56 17 16 C11.39 16 5.78 16 0 16 C0 10.72 0 5.44 0 0 Z " fill="#000000" transform="translate(102,366)"/>
<path d="M0 0 C5.61 0 11.22 0 17 0 C17 5.28 17 10.56 17 16 C11.39 16 5.78 16 0 16 C0 10.72 0 5.44 0 0 Z " fill="#000000" transform="translate(71,366)"/>
</svg>
